<!--?xml version="1.0" standalone="no"?-->
              <svg id="sw-js-blob-svg" viewBox="0 0 100 100" xmlns="http://www.w3.org/2000/svg" version="1.1">
                    <defs> 
                        <linearGradient id="sw-gradient" x1="0" x2="1" y1="1" y2="0">
                            <stop id="stop1" stop-color="rgba(73.735, 2.519, 171.584, 1)" offset="0%"></stop>
                            <stop id="stop2" stop-color="rgba(1.008, 144.426, 255, 1)" offset="100%"></stop>
                        </linearGradient>
                    </defs>
                <path fill="url(#sw-gradient)" d="M21.2,-22.2C28,-19.5,34.6,-13.4,36.3,-6.1C37.9,1.2,34.8,9.7,30.5,18C26.2,26.2,20.8,34.3,13,38.3C5.1,42.3,-5.1,42.2,-13.6,38.6C-22.1,35,-28.9,27.8,-31.7,19.8C-34.6,11.8,-33.5,3.1,-32.7,-6.5C-31.9,-16,-31.3,-26.3,-25.9,-29.3C-20.5,-32.3,-10.2,-27.9,-1.5,-26C7.2,-24.2,14.3,-24.9,21.2,-22.2Z" width="100%" height="100%" transform="translate(50 50)" stroke-width="0" style="transition: all 0.3s ease 0s;" stroke="url(#sw-gradient)"></path>
              </svg>