<svg width="720" height="640" viewBox="0 0 720 640" fill="black" xmlns="http://www.w3.org/2000/svg">
  <g xmlns="http://www.w3.org/2000/svg" fill="none" fill-rule="evenodd">
    <rect width="720" height="640"/>
  </g>
<g transform="translate(120, 80)"><path xmlns="http://www.w3.org/2000/svg" d="M393.13 244.9l.01.1-.01-.1zm-276-109.4l.01.1c-.01-.06-.01-.08-.01-.1z"/><path xmlns="http://www.w3.org/2000/svg" d="M259.7 60.17c-.9-.9-4.95-8.16-11.75-12.06-5.65-3.2-11.24-1.48-13.08-.76l-1.9-4.13-.46.2c.43-1 1.18-3.44.04-6.63-1.7-5-9.05-6.98-14.65-4.88-4.6 1.7-8.32 7.56-7.12 12.56.9 4.04 3.8 5.7 5.47 6.34l1.9 3.8.16.82s-5.72 5.27-4.5 15.65c1.33 11.32 10.5 14.78 10.5 14.78l1.85-4.9c.02 0 .03-.01.05-.02l-6.87 22.43-2.2 5.7s3.2 4.1 10.8 5.7c5.2 1.1 8.7 1.2 11 1 1.9-.2 4.2-.6 3-4.1-1.7-5.2-1.1-8.5-1.1-8.5l2.4-13c1.46.24 2.82.25 3.9-.1 3.2-1 6.2-4 7.3-10 .7-4 1.1-9.1 1.1-12.9 0-2-.2-5.72-.24-6.2 2.85-.04 4.8-.5 4.4-.83zm-46.14 3.3c-.02 0-.07.12-.16.46l.16-.46zM234.1 38.1l-.12-.18v.01z" fill="#fff"/><path xmlns="http://www.w3.org/2000/svg" d="M225.43 72.4c-1.6 0-2.9 1.35-2.9 3s1.3 3 2.9 3 2.9-1.35 2.9-3-1.3-3-2.9-3zm0 5c-1.05 0-1.9-.9-1.9-2s.85-2 1.9-2 1.9.9 1.9 2-.85 2-1.9 2zm18.7-13.62c-3.6-.3-5.18 2-5.3 2.2a.78.78 0 0 0 .2 1c.26.18.88.12 1.1-.1.4-.4 1.2-1.8 3.9-1.6.4 0 .8-.3.8-.7s-.25-.74-.7-.8zm7.8.9c.44 0 .96-.05 1.63.38.36.22.8.1.97-.18.2-.3.18-.77-.1-1-1.32-1.07-2.46-.75-2.8-.7-.4.06-.68.5-.6.9.08.42.5.6.9.6zm-3.53 9.72c-.3.2-.3.6-.1.9s.7 1.2.5 1.8-.7.6-.9.6c-.3 0-.7.2-.7.6 0 .3.2.7.6.7h.2c.6 0 1.7-.3 2.1-1.5.4-1.4-.7-2.8-.8-3-.2-.3-.6-.3-.9-.1zm-4.17-3.9c-.3 0-1.4-.02-2.38.46a1.04 1.04 0 0 0-.42.38 1.36 1.36 0 0 0-.3.86c0 .77.63 1.4 1.4 1.4s1.4-.63 1.4-1.4c0-.25-.07-.48-.18-.68.2-.02.37-.02.48-.02a.5.5 0 1 0 0-1zm.27 12.32c-3.6.1-4.6-2.78-4.67-2.92a.72.72 0 0 0-.94-.41c-.4.13-.55.55-.42.94.53 1.46 2.35 4 6.16 3.9.4-.03.67-.36.63-.86-.03-.3-.36-.67-.76-.64zm15.75-22.64c-.02-.1-.1-.24-.18-.37-.08-.14-.1-.26-.24-.4l-1.26-1.87c-.33-.5-.66-.95-1-1.3-1.32-1.54-.57-1.3-2.12-2.76l-.44-.7c-.62-.67-.57-.36-1.24-1.1.1-.02-.87-.94-.38-.6-.8-.84-1.72-1.57-2.77-2.28-1.05-.72-2.2-1.42-3.6-2.2-.36-.04-.9-.23-1.4-.4-.52-.14-1.03-.27-1.3-.27-.03-.05-.8-.2-1.35-.3-.55-.07-.87-.13.02-.13.15.01.42.06.4.1l.23-.07c-1.76-.5-3.27-.2-5-.04.52-.03 1.2-.1.76.02l-1.6.2.32-.15c-.8.1-1.6.28-2.4.5l.35.02-.72.16-.14-.26-.15-.23c-.1-.13-.2-.2-.33-.15-.12-.27-.03-.25.04-.33-.1.05-.25-.17-.35-.37l.08.08-.3-.6-.13.2c-.1-.34.2-.2.01-.47l-.15.08c-.12-.3-.17-.6-.24-.95l.06-.17a9.1 9.1 0 0 0 .27-.99c-.16.17-.04-.4-.01-.98l.12-.06.05-1.54c.04-.2.13-.43-.14-1.52l-.24-.35-.5-1.5c-.07-.3-.15-.66-.9-1.54.25.38.25.5.13.4-.06-.05-.15-.15-.26-.3a5.34 5.34 0 0 1-.44-.52l.26.15c-.4-.47-.57-.57-.84-.86.3.2.26.01-.43-.57.2.08.35.2.53.3-.44-.36-.96-.6-1.44-.88-1-.85-2.95-1.4-3.4-1.62 0 0-.65-.2-1.4-.32-.74-.12-1.57-.17-1.88-.1.55-.1-.94-.16-.52-.27l-3.57.5.15-.05c-1.5.28-2.8.87-3.85 1.63-1.06.75-1.96 1.6-2.9 2.63.17-.02-.76 1.1-.4.9-1.5 2.35-2.48 4.62-2.1 5.72l-.16 2.2-.05-.3c.12 1.24.4 1.98.6 2.65.26.66.5 1.25 1 2.02a3.63 3.63 0 0 0 .76.76l1.18 1.06c-.46-.26.05.16.54.5-.32-.2-.45-.25.18.25a3.7 3.7 0 0 1 .4.2c0 .01.03.03.01.03.9.47.76.33.35.12.03 0 0-.04-.1-.13.2.17.5.32.8.46l.63 1.3s.84 1.72 1.5 2.53l.08.28-.3.38-.46.62-.84 1.3c-.18.16-.04-.2.25-.7l-.76 1.24c-.1-.07.44-.9.74-1.34-1.35 1.62-1.93 3.8-2.7 6.05l-.02.5-.05.14c.06.01-.01.54-.05.9-.15.32-.23-.07-.4 1.1-.12.46-.13 1.13-.16 1.84l.12 2.05c-.01-.66.07-.45.1-.17.05.58-.03.93.05 1.38l-.13.07c.06-.12.1.26.2.7l.24 1.02c-.05.35-.24-.9-.34-1.03.42 2.34.13 1.2.76 3.48.47 1.18.05-.26.34.3l.64 1.54.75 1.62-.07-.42a40.17 40.17 0 0 0 2.62 3.89c1.4 1.35 2.65 2.16 3.64 2.7.9.48 1.56.73 2.04.87l.08.06c-.1.48-.03.6.26.2l-5.4 17.64-2.3 5.96.17.22c.14.17 3.4 4.26 11.1 5.88 3.44.73 6.48 1.1 9.08 1.1a22.56 22.56 0 0 0 2.07-.09c1.28-.13 2.7-.37 3.4-1.45.5-.8.52-1.88.03-3.3-1.63-5-1.1-8.22-1.08-8.25l2.3-12.53a11.6 11.6 0 0 0 1.53.11c.76 0 1.47-.1 2.12-.3 2.27-.7 6.3-3 7.64-10.4l.3-2c1.6-.9 2.72-3.2 2.72-5.92 0-2.26-.76-4.2-1.92-5.33-.01-1.77-.16-4.6-.22-5.6a4.64 4.64 0 0 0 .4-.03c.05.14-.58.1-.25.2.6-.06 1.12-.06 1.66-.1l.42-.03c.2-.02.4-.05.63-.1.43-.07.9-.2 1.23-.45l.16.02a.99.99 0 0 0 .25-.32c.1-.13 0-.2-.03-.32zm-17.3 6.95c-2.38 0-4.45 2.33-4.9 5.35l-5.44-.94c1.36-.55 2.82-1.52 3.72-3.23 1.85-3.53 1.94-8.5 1.9-10.4 1.88.68 7 2.47 9.9 2.7 2.95.24 5.7.62 6.68.77l.2 4.82a3.14 3.14 0 0 0-1.35-.31c-2.2 0-3.95 2.33-4.24 5.44-.2-.06-.45-.1-.77-.1a1.91 1.91 0 0 0-1 .31c-.7-2.56-2.58-4.43-4.7-4.43zm4 6.6c0 3.1-1.8 5.6-4 5.6s-4-2.5-4-5.6 1.8-5.6 4-5.6 4 2.5 4 5.6zm-28.6-18.7h0l.1.2-.1-.2zm22 48.07c-.03.14-.6 3.5 1.12 8.75.38 1.1.4 1.93.07 2.45-.45.7-1.6.88-2.64 1-2.9.25-6.55-.08-10.85-1-6.34-1.33-9.56-4.47-10.33-5.3l2.1-5.45 6.8-22.17a5.91 5.91 0 0 0 1.6-.72c.1.32.17.65.24.96.53 2.22 2.42 4.1 5.96 5.93 1.7.87 5.03 2.43 8.24 3.05l-2.3 12.5zm13.6-23.1c-.93 5.1-3.4 8.5-6.96 9.6-3.65 1.14-10.2-1.98-12.12-2.97-3.2-1.66-5-3.38-5.44-5.27-.12-.55-.28-1.14-.45-1.72l-.22-.76-.6.52c-.85.75-1.93 1.17-3.03 1.17-2.65 0-4.8-2.33-4.8-5.2s2.15-5.2 4.8-5.2c1.42 0 2.77.68 3.68 1.87l.15.2h.25c.05 0 .4-.01.95-.08l7.8 1.3c0 .08-.01.16-.01.25 0 3.6 2.2 6.6 5 6.6 2.7 0 5-3 5-6.6a8.76 8.76 0 0 0-.07-1.03c.18-.17.46-.4.76-.4.3-.03.55.04.74.13.06 3.48 1.9 6.2 4.28 6.2.17 0 .34-.02.5-.05l-.24 1.45zm1.03-10.2c-.1-.08-.2-.12-.34-.12-.3 0-1.2.01-2.2.4-.05.03-.1.07-.15.1a1.33 1.33 0 0 0-.26.21c-.01.01-.02.03-.04.04a1.4 1.4 0 0 0-.36.93c0 .77.63 1.4 1.4 1.4s1.4-.63 1.4-1.4a1.35 1.35 0 0 0-.2-.7c.15-.01.3-.01.4-.01a.52.52 0 0 0 .31-.1 85.84 85.84 0 0 1-.62 6.9 2.01 2.01 0 0 1-.65.1c-1.78 0-3.3-2.45-3.3-5.35s1.5-5.35 3.3-5.35c.48 0 .94.2 1.36.5l-.06 2.4zm1.04-1.27c.58.97.94 2.28.94 3.7 0 1.86-.62 3.53-1.53 4.5a88.94 88.94 0 0 0 .6-8.2z"/><path xmlns="http://www.w3.org/2000/svg" d="M219.74 53.72c.36-.1.62-.27 1-.66l-.15-.04c.3-.12.48-.35.7-.53.05-.2-.27.01-.07-.26l.72-.52c.01.08-.25.25-.13.3.01-.08.38-.34.25-.4l.1.1c.07-.1.2-.06.32-.15.04-.07.05-.15-.1-.07.22-.22.5-.58.75-.63.25-.17.24-.01.37.03.07-.06.14-.2.1-.23l.04-.01.05-.15c.6-.18.87-.8 1.42-.9-.1.1-.34.17-.3.28l.36-.25c-.14.12-.23.25-.13.3.5-.36.9-.78 1.62-1.1.1.14.47-.15.76-.1-.04-.01-.06-.03-.06-.04-.1.03-.16.01.06-.1 0 .01.01.01.01.02.03-.03.07-.06.08-.1.2 0 .2.04.1.08.14-.05.3-.1.2.02.4-.07.35-.3.54-.4l1.13-.38-.06.05c.16-.02.26.1.55-.01.1-.55.78-.24 1.4-.57-.13-.13.23-.16.17-.27.34-.01.62-.13.9-.24l.44-.17.23-.06c.01 0 .02.01.04.02v.01c.1.1.16-.01.03-.1.1.1.23.1.33.18-.04-.03-.06-.06-.06-.07-.08-.07-.06-.12-.06-.12.08 0 .07-.04.04-.08-.03-.06-.04-.05-.03-.18l-.34-.27.18.07c-.1-.18-.03-.26.06-.2-.02-.1-.08-.12-.16-.24l.12.01c-.06-.25-.34-.24-.24-.06-.5-.35.01-.34-.4-.67l-.18-.02c-.33-.42.17-.28-.2-.7l.1-.06c-.05-.04-.05-.06-.15.02 0-.12.04-.23-.3-.3-.28.04.1.1-.03.2-.3.17-.4-.02-.66-.06l.08.1c-.18 0-.36-.01-.55 0l.07-.1-.37.03c-.1.1.06.06.18.08-.4.02-.67.4-1.1.27l.02-.12c0 .03.06.02.1 0 .36-.25-.3-.04-.35-.1-.08.15-.46.14-.56.36-.76-.05-1.18.48-1.74.54.1-.13-.2 0-.2-.1-.25.02-.12.2-.33.26l-.24-.06c-.38.4-.4-.05-.82.26-.2.3-.74.2-1.06.62l-.07-.1c-.28.26-.55.18-.78.4-.13-.05.03-.1-.05-.2-.22.25-.05-.24-.17-.03-.45.1-.5.85-.9 1.04-.3.38-.85.22-.78.5l.2-.1-.52.35-.07-.07c-.18.2-.76.4-.93.7 0-.01-.03 0-.05-.01-.22.24-.37.18-.52.47l.01-.05c-.3.47-1.24 1.03-1.85 1.5-.05-.05-.16 0-.3.1-.06.04-.13.1-.2.16-.05.05-.05.05-.07.08.02-.02-.02-.08-.03-.1-.01.1-.1.12-.22.16-.2.02-.1.15.03.22h-.03c-.03.04.05.1.1.15.05.06.14.27.04.34.42.38.62.83.88 1.57l-.05-.01c.16.92.2 1.5.17 1.82l.1.2.84-.6c.24-.24.4-.46.63-.73z" fill="#fff"/><path xmlns="http://www.w3.org/2000/svg" d="M129.82 409.86c-4.1-6.3 4-9.7 6.2-12.5 3.5-4.4 19.4-30.2 19.4-30.2l19.2 15.1s-14.7 20.1-14.7 21.7c0 3.1 13.3 8.6 19.8 11.1 1.6.6 4.3 2.4 4.4 3.9 0 .8 0 1.8-1.6 1.8l-31.2.2-21.5-11.1z" fill="#fff"/><path xmlns="http://www.w3.org/2000/svg" d="M142 387.7l.3-.4c-.02-.01-.1.1-.3.4zm24.47 33.6h-.12c.1 0 .1 0 .12-.01zm-13.37-49c-.01.01-.01.02-.01.02l-.06.1.07-.13zm-13.88 53.65l.3.2c0-.03-.07-.1-.3-.2zm9.46-.3l-.08-.02c.05.02.07.03.08.02zm3.15 7.14h-.12z"/><path xmlns="http://www.w3.org/2000/svg" d="M184.12 420.86h-32.6l-22.4-11.1c-1.3-.5-2.7 0-3.5 1.9-.3.6-1 2.5-1 2.5l25.2 11.9c.5.2 1.1.4 1.6.4h35.4v-2.8c-.1-1.6-1.3-2.8-2.7-2.8z" fill="#fff"/><path xmlns="http://www.w3.org/2000/svg" d="M164.62 421.6l-.35-.06c0 .03.1.05.35.06zm.9 4.1h.08c-.05 0-.07.01-.08.01zm-13.96-6.2h.02l.08.03zm15.88-3.1l-.22-.07c0 .03.05.06.22.07zm1.52 3.68c.02 0 .03-.01.05-.01-.03 0-.04.01-.05.01zm-5.95-9.38h.01l.02.03z"/><path xmlns="http://www.w3.org/2000/svg" d="M168.72 415.66c2.5-.3 4.3-1.6 5.2-3.8l-11.6-5.2c-.3.9-.6 2.5-.5 3.5.4 3.4 3.4 5.9 6.9 5.5z" fill="#fff"/><path xmlns="http://www.w3.org/2000/svg" d="M172.28 413.16l.1-.02c-.02-.01-.05-.01-.1.02zm-8.82-.63c.01 0 .01 0 .02.01-.01-.01-.02-.01-.02-.01zm10.14-2.16h0c.03.01.04.01.06.01l-.06-.01z"/><path xmlns="http://www.w3.org/2000/svg" d="M320.92 421.26c-5.3.5-4.3-10.7-5.7-14-2.1-5.2-9.2-17.8-9.2-17.8l22.5-9.6s7.9 17.4 9.4 18.1c2.8 1.5 9.8 3.3 24.8 4.3 7 .3 11.1 0 11.5 2.9s-.7 3.1-.7 3.1l-52.6 13z" fill="#fff"/><path xmlns="http://www.w3.org/2000/svg" d="M310.97 399.5l-.18-.42c-.01.01.03.12.18.42zm45.66 13.4l-.1.03.1-.03zm-44.38-25.3c-.01 0-.02.01-.02.01-.04.02-.07.04-.1.05l.12-.06zm24.22 40.17l.34-.02c-.01-.03-.1-.03-.34.02zm5.9-5.5l-.07.03c.05-.01.06-.02.07-.03zm7.3 4.3h-.01l-.1.04z"/><path xmlns="http://www.w3.org/2000/svg" d="M374.52 407.96l-54.7 13.3c-1.4.3-2.2 1.8-1.9 3.1l.7 2.8 59.8-14.6-.7-2.8c-.5-1.3-1.9-2.2-3.2-1.8z" fill="#fff"/><path xmlns="http://www.w3.org/2000/svg" d="M356.44 413.1l-.34.02c.01.02.1.03.34-.02zm1.98 3.57l.07-.03c-.05.02-.06.03-.07.03zm-15.2-2.37h.02l.08-.04zm14.36-6.68l-.22-.01c.01.02.07.03.22.01zm2.85 2.88c.01-.01.03-.01.04-.02-.03.01-.04.01-.04.02zm-8.53-7h.01l.03.03z"/><path xmlns="http://www.w3.org/2000/svg" d="M358.22 406.56c2.4-.8 3.9-2.9 4.1-5.2l-12.5-1.5c-.1.9 0 1.9.4 2.8 1.2 3.4 4.7 5.1 8 3.9z" fill="#fff"/><path xmlns="http://www.w3.org/2000/svg" d="M345.67 408.64h0l.07.1zM361 403.3l.1-.04c-.02-.01-.05-.01-.1.04zm-8.54 1.48h.02c-.01-.01-.02 0-.02 0zm9.77-4.68h0c.03 0 .04 0 .06-.01h-.06zM156.5 413.46h0l.04.1zm132-33v-.05c-.01-.01-.02 0-.01.05z"/><path xmlns="http://www.w3.org/2000/svg" d="M379.8 415.33l-.02-.23-.06-.48-.34-1.35c.05-.01.1-.02.15-.04l-.7-2.7-.27-.94c-.18-.5-.36-.75-.6-1.06-.47-.6-1.1-.97-1.67-1.15s-1.1-.14-1.44-.04c-.1.03-.18.07-.25.1.07-.3.1-.57.1-.83.02-.47.01-.92-.04-1.34-.03-.43-.15-.9-.36-1.27-.12-.18-.25-.35-.4-.5l-.46-.34c-.95-.54-1.3-.58-1.62-.74-.33-.12-.7-.25-1.73-.3l-.8-.18c-.87-.08-.64.07-1.6-.02.06-.06-1.2-.1-.65-.14l-.55-.03c-.01-.02-.03-.04-.04-.05-.18-.17-.36-.26-.5-.32-.3-.1-.5-.07-.57 0s0 .17.13.32l-.83-.02-1.04-.1.55-.07c.47-.07.8-.15 1-.22.43-.15.4-.3.2-.46-.45-.3-1.62-.52-1.7-.52l-2.5-.36c-.01.05-.01.1-.02.14-.27-.04-.5-.06-.58.01l-.1-.13c-.1.05-.24.07-.33 0l.01-.03c-.17.07-.33 0-.42.03l.01-.03-.2-.01.04-.05c-.28.06-.56.04-.8-.04v.15c-.5-.22-.73.05-1.18-.2l.01-.03c-.64.3-.9-.37-1.57-.1.08-.04-.02-.08-.01-.1-.3.01-.6-.01-.63.27-.2-.03-.16-.1-.17-.22-.01.12-.2.15-.36.14l.08-.04h-.47l.06.24c-.24-.1-.03-.3-.27-.26v.2c-.33-.08-.5-.4-.8-.58-.34-.06-.7-.1-1.04-.1l-1.13-.03-.32-.02v-.06l-.2-.02.06-.03-.8-.07.17-.03-.9-.04-.74-.05-.9-.12.03.15c-.2-.06-.82-.18-1.17-.07-.4.08-.7.25-.95.47-.1.1-.2.2-.3.33l-3.65-.97c.14.13-.33 0-.82-.14l-.03-.1c-.94-.24-1.07-.37-1.22-.46-.15-.1-.28-.2-1.15-.56l.17.03-.26-.04-.06-.01-.03-.01h-.02l-.16.32.01-.04c.03-.1.1-.22.13-.26l-.02.01c-.07-.04-.2-.17-.3-.27-.1-.1-.15-.2-.2-.27a1.915 1.915 0 0 1-.21-.39c-.1-.23-.24-.47-.8-1.26.4.65.03.4-.4-.45l.18.17-.53-.9c.18.26.17.1-.2-.58l.32.42-.8-1.23-1.46-3.07-1.37-2.67c.27.4-.28-.8-.04-.5-.34-.54-1.2-2.2-1.44-2.9l.07.12-.96-2.1-.67-1.4 3.64-1.5c.9-.26 1.5-.92 1.77-1.73a3.116 3.116 0 0 0 .2-.73c.14-.66-.16-1.4-.33-2.2-.8-3.26-2.3-8.02-4.63-14.62l.18.33c-2.9-7.8-4.85-12.66-7.24-17.88-.07-.95-2.57-6.33-3.23-8.16l.1.16c-2.15-4.6-3.85-9.7-5.94-14.14.1.17.2.23.65 1.27-1.4-3.27-3.4-7.72-3.34-8.03l-10.47-23.62.2.32c-1.4-2.77-1.65-3.67-3.14-6.8-.06-.18-.15-.4-.12-.38-1.53-3.02-4.02-9-5.2-11.48l.03-.2-2.75-6.15 1 2.3c-.63-.67-1.9-4.74-4.05-9.12-1.82-4.2-4.34-8.22-6.12-12.62-1.05-2 1.02 1.73-.45-1.32.1-.17.73 1.4.5.56-1.4-3-2.06-5.05-3.82-8.75l.05-.2c-2.37-4.8-3.94-9.3-5.58-12.46-2-4.3-1.43-3.83-2.83-6.85.3-1.18.58-2.42.88-3.83l.35-1.94.36-2.15.26-1.7.06-.42.02-.1c.01-.04.02-.08-.03-.07h-3.4c-.26-.06-.5-.07-.76 0l-3.07.01c-.12-.01.05-.03.7-.05l-2.9-.04h-2.36l-4.9.06c-3.37.04-7 .07-11.05-.07-1.76.2-5.85.08-7.17.24-.22-.1-8.2-.01-3.6-.2.4-.02 1.1-.01 1.04.02l.55-.12c-4.63-.23-8.42.13-13 .1 1.36.04 3.17.03 1.96.1l-4.26-.02.9-.1-6.34-.06.87.13c-1.1-.02-1.93-.06-2.7-.1-.1-.01-.22-.02-.38-.02-1.3-.06-2.53-.1-4.6.02-1.07.07.64.12.86.16-.86.04-1.57.06-1.82-.01l-.75.03-2.08-.04-1.93-.04-1.37-.02h-.88l-.44.01c-.14.01-.35-.04-.28.16 0 2.82.1 3.7.24 5.22.15 1.4.32 2.8.56 4.14.05-.52.3.9.63 2.36l-.08.2c.72 2.77.87 3.27.92 3.8.04.26.08.52.23 1.05a7.979 7.979 0 0 0 .12.45l-1.62 14c-.8 5.14-1.72 12.58-2.78 20.1-1.17 7.5-2.14 15.18-3.36 20.62-1.6 7.7-4.9 15.65-8.88 23.22-4.05 7.56-8.56 14.97-12.53 22.03-.15.22-.38.63-.58 1-.1.18-.18.34-.24.46s-.1.2-.1.2l-7.73 12.68-5.46 8.85-9.8 16.02-1.02 1.73c-.32.57-.63 1-.92 1.66-.55 1.25-.32 2.5.07 3.3.4.8.9 1.23 1.2 1.43.3.2.36.18.23-.02-.13-.22-.56-.63-.9-1.47a3.542 3.542 0 0 1-.21-.81c.17.78.6 1.52 1.27 2.1l4.37 3.6-.1.17c-9.6-7.2-4.75-2.83-.53.83-.2.33-.38.58-.44.6-1.54 2.5-2.55 4.34-3.82 6.42-.2.2.07-.3.43-.92l-.9 1.47c-.06-.06.5-.87.76-1.33-1.2 1.67-2.16 3.66-3.57 5.63l-.22.46-.1.12c.03.01-.22.5-.4.8-.24.25-.12-.1-.77.9-.57.76-1.44 2.27-2.1 3.33.38-.55.3-.35.15-.1-.33.5-.58.75-.8 1.15l-.1-.01c.2-.15-.8 1.35-.9 1.55-.25.24.48-.8.5-.95-1.35 1.97-.65 1.02-2.05 2.93-.73 1 .22-.1-.1.4-.7.83-1.54 1.56-2.58 2.34l.37-.2c-1.6 1.4-2.58 2.22-3.56 3.3-1.23 1.62-1.43 3.32-1.16 4.43.07.58.36 1 .5 1.38.06.1.12.2.17.28-.4-.14-.7-.18-1.02-.2-.67 0-1.1.22-1.07.36-.55.16-.75.3-.86.32-.1.03-.12-.02-.22-.02.05.08-.7.75-1.04 1.45.04-.1.1-.23.16-.34-.45.68-.6 1.3-.86 1.92l.36-.27c-.23.48-.32.5-.4.55-.04.02-.07.03-.12.12-.06.1-.14.3-.27.67h.2l-.6 1.03c-.05.1-.1.2-.16.3l-.1.18c-.06.12-.1.23-.16.34-.2.42-.3.72-.27.85.03.12.18.07.5-.2.06-.05.13-.12.2-.2l-.38.6c-.6 1.26-.43 2.07.28 2.77-.25-.2-.46-.4-.6-.65-.25-.4-.3-.84-.3-1.18.01-.34.05-.62.1-.84.16-.85-.01-.82-.3-.5-.16.2-.36.5-.5.94-.15.42-.25 1-.12 1.6.12.58.4 1.04.63 1.3.22.26.36.4.36.4.57.54 1.07.85 1.6 1.16.48.26.9.47 1.34.68.86.42 1.7.78 2.54 1.15l6.05 2.6c4.33 2.15 5.36 2.94 9.93 5l1.64.8 1.73.8c.7.3 1.43.45 2.14.52.77.06 1.33.02 1.9.02 1.1-.2 3.06.02 4.37-.15l.5.12c.45-.06.98-.1 1.44-.03l-.03.03c.67-.1 1.44-.03 1.77-.07l-.03.03.82-.01-.14.05c1.18-.1 2.4-.1 3.46-.04l-.1-.15c2.28.18 3.12-.12 5.18.08l-.03.03c2.6-.37 4.12.3 6.8-.06-.33.04.14.08.12.1 1.24-.03 2.56-.05 2.58-.33.9.01.73.1.85.2 0-.13.78-.17 1.48-.18l-.32.05 2.02-.03-.4-.24c1.07.07.27.3 1.3.24v-.2c.37.01.67.06 1.1.04.4-.02.75-.1 1.1-.23.68-.27 1.36-.73 1.8-1.62.17-.4.26-.85.27-1.3v-.96l-.01-.82h.01l-.03-1.92v-.18l-.01-.76c-.02-.35-.01-.63-.05-1.03a3.748 3.748 0 0 0-.32-1.15c-.3-.7-.83-1.25-1.36-1.56-.53-.32-1.05-.4-1.4-.4-.2.01-.34.04-.42.08.05-.06.1-.13.12-.2.14-.07.16-.14.1-.2.05-.15.1-.3.1-.46.02-.18.02-.35.02-.54 0-.18-.05-.46-.14-.66l.04-.1c-.56-1.07-1.35-1.67-2.04-2.25-.7-.55-1.42-.97-2.1-1.2-1.58-.58-1.43-.7-2.34-1.05-.06-.36-.24-.7-.47-.84-.33-.22-.55-.2-.62-.15-.08.06-.03.17.1.38.04.06.07.12.1.2-.08-.1-.2-.17-.33-.23l-1.56-.7c.18.04.36.07.5.1.5.1.84.12 1.08.12.48 0 .5-.16.35-.37-.33-.42-1.46-1.04-1.46-1.04l-.1-.05-.17-.1c-.12-.06-.23-.12-.34-.18-.23-.12-.46-.23-.68-.34L173 410c-.03.07-.05.13-.08.2-.25-.1-.42-.22-.65-.2l-.06-.16c-.12.01-.25 0-.32-.1l.02-.03c-.18.02-.32-.1-.4-.1l.02-.03-.18-.06.05-.03c-.3-.02-.55-.14-.76-.28l-.04.14c-.42-.37-.72-.17-1.08-.54l.02-.03c-.7.1-.77-.63-1.5-.56.1-.01 0-.08.02-.1-.28-.08-.57-.2-.7.07-.2-.1-.12-.15-.1-.26-.05.1-.24.1-.4.03l.1-.01-.45-.15-.01.25c-.2-.16.06-.3-.18-.33l-.08.18c-.3-.18-.36-.53-.6-.8-.3-.16-.64-.3-.98-.4-.17-.06-.34-.1-.5-.17l-.74-.27c-.16-.14-.35-.27-.52-.4l.16.07c-.26-.2-.5-.36-.75-.53l-.53-.4c-.13-.1-.25-.2-.37-.3l-.57-.48v.2c-.12-.1-.25-.2-.37-.28-.02-.08-.02-.15.01-.18-.01.08.01.08.04.1-.01-.03 0-.03.01-.07l.1-.2c.1-.16.16-.32.26-.5.2-.33.4-.67.6-1l-.23.24c.63-.97.96-1.24 1.6-2.4.28-.53-.7.87-.04-.18l3.44-4.8c-.18.1.13-.34.43-.8l.1-.01c1.13-1.8.58-.54 1.72-2.3l-.06.18.2-.54c.27-.45.44-.7.58-.88l.87.7 2.03 1.6c1.2.8 2.83.7 3.9-.24.27-.23.5-.54.6-.66l.4-.5.8-1.04 1.68-2.16 7.8-10 24.52-30.22 16.1-19.66c2.42-3.1 6.72-8.52 9.02-12.56l1.05-1.46 2.53-4.4-.02.1 2.85-5.56-.01.1.64-1.3c.16-.35.3-.73.46-1.1.01.01.01.02.02.04l-.05.17a2.768 2.768 0 0 0 .06-.16c.4.73.66 1.27 1.1 2.03l-.43-.66c1.63 2.65 2.63 4.38 3.52 5.95l1.3 2.33.33.6.17.32.05.1.08.13.1.16.84 1.38c1.26 1.93 1.67 2.1 3.73 5.7-.78-1.1.1.34.9 1.68-.5-.85-.7-1.1.26.7.17.23.4.6.64.95 0 .02.04.1.01.06 1.33 2.2 1.14 1.8.54.76.04.04.01-.05-.15-.4 1.24 2.38 3.74 6.47 3.75 6.84l9.96 17.12c.27.68-.53-.6-1.48-2.22l2.26 4c-.14.03-1.34-2.27-2.05-3.5 2.46 4.88 5.65 9.75 8.55 15.47l.73 1.1.17.34c.04-.04.8 1.18 1.27 2 .33.85-.27.07 1.26 2.86 1.1 2.26 3.45 6.24 5.07 9.1-.82-1.57-.5-1.1-.1-.44.76 1.4 1.1 2.25 1.7 3.3l-.05.16c.2.14 2.12 3.66 2.42 4.1.32.85-1.25-2.12-1.52-2.43l4.55 8.46c2.46 2.77-.35-.56.9.68.54.58 1.15 1.1 1.88 1.45.7.35 1.66.58 2.48.18 1.4-.6 2.88-1.2 4.5-1.83l-1.06.3 3.17-1.37 2.2 3.72c.07.25-.23-.2-.56-.76l.8 1.4c-.08.03-.48-.8-.74-1.22.8 1.75 2 3.42 2.95 5.46l.27.38.05.12c.03-.02.3.4.47.7.08.3-.15.05.36 1.04.34.8 1.17 2.2 1.7 3.23-.26-.56-.14-.4 0-.17.24.5.32.82.53 1.2l-.06.1c-.01-.24.7 1.27.8 1.45.07.32-.4-.76-.5-.87.47 1 .56 1.27.67 1.52.1.27.23.45.45 1.52.28 1.14.05-.23.23.3.2 1.02.37 2.04.46 3.25l.04-.4.64 4.47c.47 1.8 1.12 3.15 1.93 3.88.16.15.32.26.48.36-.1.1-.17.17-.13.22-.48.27-.64.43-.74.47-.1.05-.12 0-.2.02.08.07-.52.83-.68 1.66.01-.13.04-.25.06-.38-.13.38-.2.8-.18 1.2.01.2.03.4.08.6.04.2.08.32.13.48l.14-.42c.18 1-.22.32.07 1.24l.2-.06c.05.23.13.62.2.97-.16.04-.32.1-.48.13.82 2.5 1.15 3.16 1.4 3.38.12.07.2-.08.2-.54 0-.06 0-.14-.01-.22l.2.65c.2 1 1.05 1.7 1.98 1.9-.32-.03-.6-.1-.87-.2-.8-.34-1.22-.9-1.45-1.27-.4-.77-.5-.6-.56-.22 0 .28.07.7.28 1.1.2.42.53.82.9 1.1.73.6 1.54.75 1.54.75.4.1.78.13 1.18.1.46-.05.66-.1.9-.15l1.36-.3c.87-.2 1.7-.43 2.53-.68 1.67-.5 3.44-1.05 5.92-1.7 4.4-1 5.64-1.02 10.17-2.23 2.18-.5 4.48-1.13 6.6-1.68.96-.45 2.8-.68 3.94-1.14h.5c.4-.16.87-.32 1.3-.35l-.02.04c.6-.24 1.3-.35 1.6-.47l-.02.04.74-.2-.12.08c1.05-.35 2.15-.63 3.13-.82l-.1-.12c2.12-.35 2.8-.83 4.73-1.1l-.02.04c2.3-.95 3.8-.66 6.17-1.6-.3.12.15.04.13.08 1.12-.3 2.3-.63 2.27-.9.82-.2.7-.08.82.01-.03-.12.67-.34 1.3-.5l-.28.12.9-.24c.3-.1.6-.14 1-.3-.18-.01-.35-.05-.5-.1.58-.12.68-.14.77-.1.08.01.2.05.66-.37l-.14-.14c.63-.55 1-1.14 1.22-1.8.1-.33.17-.68.17-1.08l.01-.34zM151.7 374.6l3.05 2.5-3.13-2.38c.02-.04.05-.08.08-.12zm26.6 40.57l1.1.44c.35.14.65.27.97.43.63.32 1.23.7 1.78 1.13.54.42 1.06.93 1.32 1.47l.07.2c.01.06.02.1.03.16 0 .16 0 .36-.02.5-.02.13-.04.22-.07.3-1-.15-2.43-.22-2.43-.22-1.06-.07-2-.1-2.9-.1l.01-.57s.01-2.14-.1-3.86l.25.13zm-16.1-4.84c.16-.03.1.08.23.01-.1-.2.1-.32 0-.54h.12c-.23-.3.18-.58-.01-.8-.06-.33.4-.22.2-.5.06-.01.12-.01.17-.01.03-.03-.2-.12-.1-.15.1.06.1-.02.18.07.08.01.04-.06.02-.16-.02-.08-.03-.27.12-.01-.08-.26.05-.07.03-.25.03.1.14.1.1.25.03.01.12.05.16-.02 0 .01 8.95 3.55 9.05 3.67-.1.07-.04.08 0 .1-.04 0-.07.03-.07.1.03-.02.06-.03.08-.04l-.02.02c.1 0 .12-.02.1-.05.01-.01.03-.03.04-.05-.03.13.25.1.06.2.06.02.13.03.2.03.08.01.05.06.08.1.04.08.06.18.04.3-.12.01-.18-.05-.2-.1-.01.04-.02.1-.03.13-.14-.03-.04-.08-.05-.12-.3.1.1.3-.32.5l.03.13-.03.01c.04.03.05.15.02.2-.12-.04-.2-.18-.32-.05-.17.03-.25.32-.36.5.1-.05.1.02.1.08-.07.06-.2 0-.2.1l-.1-.12c.12.1-.1.27-.1.34-.1-.07.06-.16.03-.25-.3.2-.14.1-.45.3-.1.2.1.1.1.28-.15.1-.26.3-.5.3l.12.1c-.28.24-.5.3-.77.23-.2.15-.34.28-.5.4-.1.02-.2.03-.28.05-.18.03-.36.06-.54.08-.03 0-.05 0-.08.01-.22-.2-.58-.4-1.1-.75l.03-.04c-.46-.17-.7-.26-1.1-.12.04-.3-.36-.15-.43-.28l.02-.02c-.36.08-.45-.4-.77-.4.02-.01.07-.08.12-.05-.2-.06-.45-.18-.36-.32-.42-.23-.8-.75-1.2-.83l.05-.01c-.25-.03-.17-.16-.35-.27.01-.02.01-.04.02-.04-.26-.07-.33-.47-.45-.58l.1-.06c-.06-.1-.14-.22-.18-.34l.03.15c-.3.07.07-.35-.2-.54-.02-.25-.77-.38-.66-.7-.16-.15.25.05.1-.14zm1.6 11.3l.36-.1.1.02c-.01-.06.4-.13.64-.15.25.12-.02.27.85.26.68.1 1.94-.06 2.83-.12-.48-.02-.33-.08-.12-.13.43 0 .68.1 1 .06l.04.16c-.17-.15 1.13-.16 1.3-.22.25.12-.67.1-.78.2l2.6-.02c.92-.12-.17-.15.27-.3.05 0 .1-.01.14-.01l.8-.01h-.53c.25-.02.5-.03.76-.04.7.03 1.6.08 2.58.01.6 0 1.2-.05 1.8-.1.06.01.13.01.2.02l2.07-.23c.4-.02.82-.04 1.23-.02.85-.1-.75.14.53.07.04.1-.6.06-.27.14.6-.03 1.3.04 1.85-.52.01-.01.02-.03.03-.04.01.1.22.16.58.34.35.2.88.52 1.24 1.2.18.34.32.75.33 1.22.03.4-.1 1.1-.18 1.75l-.05-.1c-.01.17-.01.2-.02.25l-.02.15-.03.25c-.2-.05-1.77-.02-2.86.16-.25-.3-1.86-.03-2.4-.12l.05-.02c-1.38.22-2.84-.18-4.17.01.05-.02.08-.1.4-.1-.97.04-2.3.1-2.37-.07-2.3.04-5.54-.03-7.03.23l.1-.05c-.84.18-1.1.03-2.04.12-.05-.02-.12-.03-.1-.04-.92.18-2.7.03-3.43.1l-.05-.1-1.83.03.68.02c-.24.3-1.4-.2-2.72.01-1.06-.03-2.15.45-3.25.5h-.24c-.1 0-.22 0-.33-.01-.03.01-.04.01-.07.01h-.1c.07-.05.44-.2-.2-.14-.03-.16.43-.1.2-.23-.9.08-1.48-.16-2.6-.06l-.05-.12c-1.15.22-2.25-.96-3.2-1.1-1.4-.55-.76-.77-2.27-1.2l-.48-.4c-.6-.3-.52-.02-1.15-.4.08-.08-.8-.48-.38-.38-1.45-.87-3.17-1.24-5.05-2.44-.52-.02-1.47-.6-1.86-.6-.02-.1-2-.96-.8-.6.1.03.27.1.25.14l.2-.05c-1.04-.75-2.12-.86-3.23-1.43.32.2.77.4.43.33l-1.04-.5h.26l-1.53-.8.16.22c-.74-.42-.9-.74-1.85-.98-.43-.1.65.5-.17.15l-1.76-1-1.82-.98c-.05.13-.13.1-.26.06l.12-.08c-.14.01-.1-.06-.07-.1s.07-.05.12-.06l.1-.02c.01 0 .02 0 .02-.01.01-.04.08-.23.13-.4l.03.15-.1-.46c.13-.68.26-.8.4-.94.14-.1.2-.27.43-.76-.25.35-.37-.06.1-.38-.01.05-.02.12-.03.18.2-.2.25-.28.42-.33-.1.13 0 .16.3.07-.07.06-.12.13-.16.2.15-.14.34-.23.6-.27.1.04.33.12.4.16a22.828 22.828 0 0 0 .7.35c.45.22.84.42.97.57 0 0 1.66.9 2.13.94-.4-.07.52.44.2.43.5.1 1.84.65 2.3 1.03l-.1-.03c1.86 1.08 3.37 1.45 5.02 2.46-.01-.17.86.35.72.08 1.86.72 3.08 1.95 3.98 1.76.82.37.9.6 1.3.83l-.2-.07c1.54.7 1.98.93 3.1 1.5.3.1.5.12.74.17.3.16.62.3.94.46.01.01.02.01.03.02.08.05.16.1.3.15-.07-.02-.16-.03-.46-.18.15.07.3.15.47.23 0 .02.13.1.44.3.03 0 .07.01.1.01.12-.03.35-.05.46-.07 0 .01.03.01.02.03.7-.04.58-.07.25-.08.01-.01-.01-.03-.06-.05h.1c.75.1 1.9-.02 1.98.15 1.02-.02 1.9-.07 2.73-.13l2.5-.03c-.14.03-.34.06-.57.07l1.25-.03c-.01.13-.72.08-1.1.1 1.55.2 3.13-.22 4.87-.02zm4.18-30.63c-.87 1.16-.35.2-1.12 1.35l.1.05c-1.17 1.62-1.98 2.48-3.15 4.03-1.14 1.66-2.3 3.36-3.36 5.15-.27.45-.53.9-.77 1.4-.06.13-.12.24-.18.4l-.08.22-.04.2c-.23.03-.45.1-.63.24-.26.2-.45.43-.63.74-.16.3-.4.8-.53.96l-.03-.03c-.26 1.47-1.2 1.97-1.5 3.47.04-.2-.1.04-.13.01-.25.64-.54 1.32-.3 1.45-.2.45-.25.33-.38.35.1.05-.02.47-.18.82l.03-.18-.43 1.03.3-.1c-.3.5-.32.02-.5.56l.18.08c-.38.73-.85 1.04-1.32 1.7-.44.88-.84 1.8-1.23 2.74l-.75 1.77c-.01.02-.01.03-.02.05-1.05-.36-2.52-1.27-3.66-1.65l-.4-.33c-.42-.14-.9-.33-1.27-.6l.04-.02c-.63-.2-1.27-.6-1.58-.7l.04-.02-.72-.34.15.02c-1.07-.42-2.13-.94-3.04-1.44l.01.17c-1.92-1.13-2.78-1.22-4.5-2.3l.04-.02c-2.44-.78-3.48-2-5.98-2.85.3.1-.1-.13-.05-.15l-.34-.15-.23-.5c-.15-.38-.26-.82-.35-1.2-.01-.4-.12-.76-.05-1.02.03-.26.04-.42.04-.42.2-1.3 1-2.3 1.8-3.2.82-.9 1.73-1.65 2.7-2.46.48-.4.97-.82 1.48-1.28.5-.46 1.07-1.06 1.46-1.66.87-1.2 1.72-2.54 2.75-4.1 3.62-5.44 4.67-6.82 8.24-12.57l3.14-5.04 3.1 2.64c5.46 4.66 9.8 8.23 14.28 11.82l-.87 1.25.4-.35zm200.53 12.08h.8c.22.04.68.1.3.1.73.07.74.07 1.26.1.24.08.5.14.72.23 1.1.3 1.88.8 2 1.7.1.5.14 1.07.1 1.57 0 .1-.02.2-.04.3-.97.08-2.33.34-2.33.34-1.1.18-2.04.38-2.92.6l-.28-1.2s-.5-2.13-1.05-3.74c.57-.05 1.28-.1 1.43-.01zm-17.84-1.77c.06-.01.1-.01.17-.01.03-.03-.22-.1-.14-.14.1.06.1-.02.2.07.1.01.04-.25.18-.1-.1-.22.05-.08.03-.24.03.1.15.05.1.2.12 0 1.27.05 1.48.04.26.12 8.3.63 8.42.7-.1.1-.04.08.01.1-.04.01-.07.05-.07.12.03-.03.06-.05.08-.06l-.02.02c.1-.03.12-.06.1-.07.02-.01.03-.03.04-.06-.03.13.27.02.07.18.1.1.24.24.25.5-.1.03-.18-.03-.2-.08v.14c-.14-.01-.06-.08-.08-.12-.13.08-.1.13-.07.23.03.08-.01.33-.17.44l.06.1-.03.01c.05.02.08.13.07.2-.13-.01-.23-.13-.32.03-.17.06-.16.37-.22.56.07-.07.1-.01.12.05-.05.08-.17.05-.18.13l-.13-.1c.14.06-.03.28 0 .35-.12-.04.02-.18-.04-.25-.22.3-.1.14-.35.4-.06.22.13.08.16.25-.1.14-.17.35-.4.4l.14.07c-.2.3-.4.4-.68.4l-.37.5c-.22.1-.44.2-.67.28-.05.02-.1.03-.16.05-.25-.13-.66-.26-1.24-.48l.01-.05c-.48-.06-.74-.08-1.08.14-.03-.3-.38-.07-.48-.17l.01-.02c-.32.16-.52-.3-.83-.2.02-.02.05-.1.1-.08-.2-.01-.47-.06-.42-.22-.46-.12-.94-.54-1.34-.52l.04-.02c-.25.03-.2-.12-.4-.18.01-.02 0-.04.01-.05-.25-.01-.43-.37-.57-.45l.08-.08-.26-.28.07.13c-.3.15-.02-.35-.33-.47-.1-.23-.83-.17-.82-.52-.18-.07.26.02.08-.13.14-.07.13.05.22-.05-.13-.14-.01-.3-.1-.47l-.02-.05c-.01-.02-.03-.04-.05-.06l.1-.06c-.33-.2-.03-.57-.28-.7-.12-.2.38-.12.1-.28zm-32.06 18.02l-.2-.36c-.55-1.17-.8-2.4-1-3.53-.2-1.15-.36-2.26-.52-3.42-.17-1.16-.3-2.36-.63-3.74-.1-.35-.18-.7-.33-1.08-.15-.38-.3-.68-.46-1.04l-1.05-2.2c-2.67-5.5-3.32-6.97-6.4-12.48l-.9-1.6 5.1-2.22c1.23-.66 3.55-1.52 5.02-2.26l.62-.18c.5-.26 1.1-.54 1.65-.73v.03c.76-.38 1.65-.73 2.03-.92l-.02.03.95-.4-.15.1c1.34-.63 2.74-1.24 4-1.74l-.14-.04c1.02-.4 2.13-.87 2.07-.86.04.08.1.16.13.24.12.26.24.5.37.77a33.536 33.536 0 0 1 .8 1.83l-.03-.02c1.6 2.87 2.07 4.77 3.78 7.7-.2-.37.04.18.01.16.72 1.4 1.5 2.86 1.68 2.8.54 1 .4.84.4 1 .06-.04.56.8 1.04 1.58l-.24-.34c.23.37.45.73.7 1.1.13.18.26.36.43.54.1.1.16.18.32.28.16.1.2.1.32.17l-.2-.18c-.1-.1-.2-.18-.23-.27.36.32.5.33.6.42.1.07.13.1.16.14.06.07.12.12.73.36l.03-.12c1.76.7 2.78 1.13 4.54 1.64.44.1.9.18 1.34.27-.04.1-.07.2-.12.35l-.03-.02c.12 1.45-.67 2.14-.58 3.63-.01-.2-.1.06-.12.04-.08.66-.2 1.37.08 1.43-.1.48-.16.37-.28.42.12.02.1.45.03.82l-.02-.18-.16 1.08.27-.17c-.17.56-.3.1-.36.65l.2.03c-.2.78-.56 1.18-.85 1.92-.16.74-.3 1.5-.4 2.27l-.26 1.63c-.97.27-2.18.48-3.03.83h-.5c-.4.16-.87.32-1.3.35l.02-.04c-.6.24-1.3.35-1.6.47l.02-.04-.74.2.12-.08c-1.05.35-2.15.63-3.13.82l.1.12c-2.12.35-2.8.83-4.73 1.1l.02-.04c-2.3.95-3.8.66-6.17 1.6.3-.12-.15-.04-.13-.08-.56.16-1.14.3-1.57.47-.05.01-.1.04-.14.05-.14-.1-.28-.2-.4-.3-.24-.24-.43-.53-.56-.73zm24.16-2.94c-.06.03-.1.08-.4.17.05-.03.1-.07.17-.1.08-.03.17-.05.24-.07zm34.25-4.4c-.2.06-.4.1-.6.16a17.156 17.156 0 0 0-1.57.55c-.3-.22-1.74.4-2.26.43l.04-.03c-1.24.53-2.7.47-3.9.97.04-.03.05-.12.34-.2-.9.26-2.12.62-2.23.47-2.15.57-5.2 1.23-6.52 1.83l.08-.07c-.75.37-1.02.28-1.88.58-.05-.01-.12-.01-.1-.02-.82.38-2.5.64-3.18.88l-.07-.1-1.7.44.65-.13c-.15.35-1.34.13-2.54.63-1.17.25-2.2 1.2-3.45 1.34-.54.28.45-.35-.38-.03-.07-.15.38-.2.13-.27-.83.28-1.43.18-2.44.54l-.07-.1c-1.3.55-2.6.47-3.46.9-1.38.44-1.03-.13-2.43.46l-.6-.02c-.63.13-.4.3-1.1.4.02-.1-.9.13-.5-.07-1.6.22-3.13 1-5.26 1.24-.4.3-1.47.44-1.77.68-.08-.07-2.1.5-.97.02.1-.04.27-.08.27-.04l.1-.15c-1.23.06-2.1.65-3.3.9.36-.04.8-.17.53-.01l-1.1.25.2-.16-1.63.34.25.07c-.8.13-1.13-.01-1.98.38-.38.2.8-.02-.04.23l-1.92.32-1 .17h-.17c-.04.1-.07.13-.12.17-.02-.01-.03-.05-.06-.08l.1-.12c-.1-.1-.05-.1-.02-.3.04-.15.08-.3-.16-.98l.12.1-.35-.3c-.23-.43-.1-.52-.05-.63.08-.1.1-.2.17-.7-.14.34-.37.02-.01-.37l.02.17c.14-.22.18-.3.33-.4-.08.15.04.16.32 0-.05.08-.1.15-.1.23.15-.18.2-.28.6-.45.85-.07 2.12-.55 2.5-.47 0 0 1.8-.35 2.15-.63-.33.2.66 0 .4.2.43-.24 1.76-.67 2.33-.67l-.1.04c2.04-.35 3.4-1.02 5.23-1.3-.1-.12.85-.28.58-.4 1.82-.63 3.48-.46 4.02-1.18.07-.02.13-.03.2-.05l-.01.01.12-.03c.6-.13.8-.05 1.2-.12l-.2.08c1.58-.43 2.04-.55 3.22-.82.2-.07.34-.15.5-.24l1.54-.4c-.06.04.02.05.37.01.07-.05.17-.1.28-.14.01.01.03.01.02.02.27-.08.4-.13.45-.15.14-.02.25-.04.27-.02l1.35-.34c.02.01.05.01.06.02l1.02-.3 4.47-1.15c-.07.12-.67.22-1 .33 1.44-.13 2.82-.9 4.5-1.1l.3-.2.1-.01c-.01-.04.17-.13.35-.2.01 0 .02-.01.03-.01.07 0 .15-.02.14-.01.03-.01.08-.02.1-.04.15.08.07.2.78.04.66-.05 1.8-.5 2.62-.76-.46.1-.33-.01-.14-.1.4-.1.66-.05.96-.17l.08.14c-.18-.1.83-.36 1.1-.48l.08-.02c.16.07-.62.25-.7.35l2.42-.6c.57-.22.28-.2.15-.22.52-.1 1.13-.24 1.75-.44 1.1-.25 2.16-.7 3.26-1.07.12-.02.24-.03.36-.05.23-.08.44-.16.65-.24.15-.04.3-.1.44-.1.75-.27-.65.3.5-.05.06.08-.53.2-.2.2.97-.28 1.65-.35 2.72-.62.26-.05.5-.25.66-.48l.1-.02c.08-.14.14-.28.2-.42.1.03.27.05.5.1.72.14 2.4.83 2.32 3.5l-.07-.08.04.2.01.08.02.15.03.25c-.15.05-.26.07-.36.1z"/><path xmlns="http://www.w3.org/2000/svg" d="M351.2 401.1v-.02h-.02c.01.03.02.03.02.02zm-187.95 7.14v-.03h-.02c0 .05.01.06.02.04zm2.52 1.34l-.06.06.06-.06z"/><g xmlns="http://www.w3.org/2000/svg" fill="#fff"><path d="M297.47 361.12c-2.82-5.6-3.43-7.15-6.45-12.9l-4.33-8.38c-.77-1.22-1.8-3.54-2.68-5l-.24-.62c-.3-.5-.63-1.1-.87-1.65l.04.02c-.45-.75-.87-1.65-1.1-2.02l.04.02-.5-.94.1.15c-.75-1.33-1.47-2.73-2.07-3.98l-.03.14c-1.26-2.68-1.92-3.57-3.03-6l.04.02c-1.74-2.9-2.3-4.83-4.08-7.84.22.37-.04-.2-.01-.16-.75-1.42-1.55-2.94-1.7-2.88-.53-1.04-.4-.87-.4-1.04-.06.04-.55-.85-.97-1.66l.22.36-1.2-2.32.1.52c-.6-1.25-.01-.4-.64-1.56l-.1.07c-.85-1.72-1.2-2.8-1.98-4.5-3.5-6.9-7.56-14.13-10.64-20.63l-.07-.32c.05-.18-1.07-1.68-1.1-1.98l-.43-.72c-.1-.22-.3-.67-.07-.3-.35-.7-.37-.7-.66-1.18l-.3-.78c-1.33-2.75-2.64-5-4.06-7.87-1.6-3.5-5-9.92-6.96-13.62-2.8-5.16-5.4-11.5-8.3-16.8-.07-.18-.33-.62-.35-.6l-2.44-4.94-4.9-9.64c-1.93-3.66-2.88-5 1.13 4.35l-.1-.1c1.28 2.73 2.1 4.44 3.16 6.24-.01.37 1.1 2.23 1.35 2.88l-.04-.05c.94 1.6 1.6 3.44 2.5 4.97-.04-.06-.1-.07-.3-.43.6 1.15 1.42 2.7 1.37 2.84 1.4 2.75 3.3 6.62 4.32 8.3l-.1-.1c.6.96.67 1.3 1.28 2.4.02.07.05.15.04.14.65 1.05 1.62 3.2 2.1 4.06l-.03.1 1.1 2.17-.4-.82c.3.2.73 1.7 1.63 3.23.73 1.5 1.86 2.83 2.56 4.4.45.7-.45-.58.16.48-.07.08-.3-.48-.24-.17.6 1.06.8 1.8 1.54 3.1l-.04.1c1 1.67 1.57 3.3 2.27 4.4.96 1.76.4 1.3 1.48 3.1l.28.77c.4.8.4.5.8 1.42-.08-.02.52 1.14.2.65.93 2.04 2.2 3.98 3.38 6.68.4.5 1 1.87 1.3 2.25-.01.1 1.35 2.65.48 1.22-.07-.12-.2-.35-.16-.34l-.16-.14c.64 1.56 1.46 2.68 2.2 4.17-.2-.45-.5-1.03-.26-.66l.7 1.38-.2-.26 1.02 2.06-.08-.32c.48 1.02.55 1.43 1.23 2.5.32.48-.4-1 .17.05l2.46 5.12c-.01-.2.23.26.5.73l-.04.1c1.02 1.77.2.74 1.2 2.5l-.13-.14.38.4c.96 1.56.3.95 1.4 2.66-.38-.7-.03-.4.4.48l-.18-.2c.26.48.37.63.52.96-.18-.27-.17-.1.2.6l-.33-.44.8 1.3c.47 1.08 1.4 2.7 1.53 3.17 0 0 1.1 2.27 1.47 2.73-.3-.42.32.83.06.52.37.55 1.3 2.24 1.58 2.96l-.08-.13c1.23 2.58 2.33 4.3 3.4 6.63.02-.14.6 1.08.54.74 1.3 2.3 2 4.4 2.74 5.1.57 1.07.58 1.3.85 1.87l-.15-.25 2.1 4.08c.4.73.6.78 1.26 2.13-.28-.4.01.14.27.64-.17-.32-.24-.4.05.27.06.08.15.22.23.35 0 .01.01.04 0 .03.45.83.4.67.2.28.02.02.01-.02-.03-.15.37.9 1.24 2.4 1.2 2.57 1.3 2.5 2.32 4.24 3.43 6.3.07.26-.22-.2-.55-.8l.78 1.47c-.08.02-.48-.83-.72-1.28.8 1.82 1.98 3.58 2.93 5.7l.28.4.05.13c.03-.02.3.42.47.72.1.32-.15.05.37 1.08.35.84 1.2 2.3 1.78 3.33-.28-.58-.15-.4-.01-.18.26.5.35.84.58 1.22l-.06.1c-.02-.24.77 1.3.9 1.47.1.32-.46-.77-.57-.87l1.6 3.08c.62 1.06-.02-.24.32.25.5.96 1.05 1.87 1.57 3l-.1-.4c1 1.8 1.54 2.88 2.1 4.14 7.54 13.24 2.3 2.43 2.3 2.43-2.52-5.4-4.15-8.05-7.45-14.37zm-133.84-2.98l5.55-8.02 3.52-5.32c.44-.88 1.5-2.23 2.05-3.25l.3-.33c.2-.35.43-.75.68-1.06v.03c.28-.52.68-1.06.82-1.32v.03l.4-.6-.04.12 1.66-2.54-.12.02 2.56-3.76v.03c1.08-2.03 2.14-2.9 3.28-5-.14.26.1-.08.1-.05.58-.9 1.22-1.88 1.1-2 .44-.66.4-.5.52-.55-.06-.04.3-.63.63-1.14l-.13.25.96-1.48-.3.2c.56-.76.28-.1.75-.87l-.1-.06c.74-1.06 1.3-1.6 2.1-2.6 2.95-4.3 5.83-9.13 8.7-13.05l.2-.13c.16-.01.6-1.22.8-1.3l.27-.5c.1-.12.3-.38.18-.13.3-.43.28-.45.46-.8l.37-.43c1.14-1.74 2.04-3.26 3.1-5.17 1.5-2.17 3.5-6.72 4.5-9.37 1.33-3.76 3.26-8.03 4-12.1.05-.13.1-.47.08-.47.3-1.2.54-2.44.78-3.67 0 0 .2-1.12.42-2.6.2-1.48.4-3.3.42-4.72.04-1.4-.06-2.4-.2-2.16-.16.24-.33 1.7-.98 5.04l-.02-.1c-.3 2-.55 3.25-.65 4.65-.2.18-.35 1.63-.5 2.08v-.05c-.1 1.24-.7 2.45-.85 3.63 0-.05-.04-.08.02-.35-.2.84-.5 2-.6 2.03-.25 1-.64 2.18-1 3.27-.33 1.1-.68 2.1-.84 2.74v-.1c-.17.75-.33.92-.58 1.73-.03.04-.06.1-.06.08-.2.8-.93 2.22-1.15 2.85l-.08.01c-.22.5-.4 1.02-.66 1.5l.28-.55c.1.28-.65 1.07-1.06 2.2-.26.5-.42 1.04-.6 1.6-.2.55-.4 1.08-.73 1.57-.2.53.12-.5-.23.26-.1-.02.14-.37-.03-.22-.36.73-.73 1.1-1.17 2.02h-.08c-.56 1.18-1.4 2.03-1.74 2.84-.67 1.17-.65.64-1.32 1.9l-.4.4c-.35.5-.14.43-.55.95-.03-.07-.5.67-.34.3-.92 1.2-1.6 2.63-2.84 4.2-.14.43-.76 1.22-.86 1.54-.07.01-1.13 1.66-.6.66.05-.1.14-.23.15-.2l.01-.15c-.75.87-1.1 1.76-1.73 2.68.2-.26.45-.63.32-.36l-.6.86.07-.2-.9 1.27.18-.14c-.46.6-.7.76-1.1 1.53-.17.36.5-.54.06.14l-2.27 3.1c.14-.05-.06.24-.24.54l-.1-.01c-.68 1.2-.42.33-1.1 1.5l.02-.13-.07.4c-.56 1.1-.5.47-1.1 1.72.3-.46.28-.12-.12.42l.03-.18c-.2.32-.24.43-.4.63.1-.2-.02-.15-.3.3l.13-.35-.46.93c-.5.62-1.13 1.7-1.4 1.93 0 0-1 1.4-1.12 1.77.13-.32-.4.44-.33.18-.18.4-.85 1.53-1.2 1.92l.05-.1c-1.15 1.56-1.74 2.8-2.8 4.2.12-.02-.43.72-.22.6-.9 1.55-2 2.6-2.1 3.32-.44.7-.6.76-.85 1.1l.1-.17-1.7 2.6c-.3.5-.2.65-.8 1.47.13-.3-.1.04-.3.36.13-.2.15-.28-.16.1-.02.07-.07.17-.12.26-.01 0-.02.02-.02 0-.33.54-.26.46-.1.22 0 .02.02 0 .1-.06-.43.5-1.02 1.53-1.15 1.53-1.04 1.6-1.7 2.8-2.56 4.13-.15.12.02-.22.26-.6l-.6.95c-.06-.05.32-.56.5-.86-.85 1.04-1.43 2.37-2.4 3.6l-.13.3-.06.07c.03.01-.13.33-.25.53-.18.15-.13-.1-.56.55-.4.47-.95 1.47-1.36 2.16.25-.35.2-.22.12-.05-.2.32-.4.47-.54.74l-.1-.02c.16-.08-.5.9-.53 1.04-.18.14.3-.53.3-.64l-1.3 1.95c-.4.73.16-.08.01.3-.4.62-.74 1.25-1.26 1.92l.22-.17c-.72 1.18-1.18 1.86-1.77 2.6-5.16 8.92-.43 2.32-.43 2.32 2.4-3.27 3.37-5.14 6-9.18zm50.3-105.28l.06.16c.01 0 0-.05-.06-.16zm22.25 36.7l.03.03c-.02-.02-.03-.02-.03-.03zm-19.84-30.47c-.02-.02-.03-.03-.03-.04l.03.04z"/><path d="M211.93 251.66l2.6 4.54 1.8 2.9c.38.38.75 1.23 1.16 1.7l.06.24c.14.16.3.36.37.57h-.02c.2.24.37.57.47.7h-.02l.2.32-.06-.04c.34.44.63.93.87 1.37l.05-.08c.47.97.83 1.2 1.23 2.1h-.02c.83.93.87 1.74 1.7 2.7-.1-.12 0 .08-.03.08.32.48.66 1 .8.93.22.36.13.32.1.4.06-.04.28.26.46.54l-.1-.12.5.8.02-.23c.23.45-.08.2.2.6l.1-.07c.34.6.4 1.05.67 1.67l4.4 7.17-.02.14c-.08.1.53.52.48.66l.2.23c.02.08.1.25-.01.14.14.24.16.24.3.4l.1.3c.52.98 1.14 1.7 1.7 2.7.58 1.28 2.07 3.45 2.93 4.7 1.27 1.72 2.1 4.1 3.43 5.86.02.07.15.2.16.2l1.02 1.72s4.97 8.3 2.07 1.46l.05.03c-.5-.97-.85-1.57-1.36-2.14.1-.2-.45-.78-.53-1.02l.02.01c-.46-.5-.62-1.23-1.05-1.72.02.01.07 0 .15.13-.26-.4-.63-.92-.56-1l-1.88-2.83.05.03c-.3-.3-.3-.44-.57-.8 0-.03-.01-.06-.01-.06-.32-.32-.7-1.1-.9-1.38l.05-.05-.47-.75.16.3c-.22 0-.25-.63-.68-1.12-.3-.53-.96-.84-1.2-1.42-.23-.2.26.15-.03-.2.07-.06.16.15.16.01-.27-.35-.3-.66-.62-1.1l.05-.06c-.48-.53-.6-1.18-.96-1.52-.43-.6-.06-.53-.58-1.1l-.07-.3c-.15-.28-.23-.13-.37-.47.07-.01-.2-.4-.03-.27-.33-.74-.97-1.33-1.38-2.33-.23-.13-.44-.63-.6-.73.03-.05-.55-.93-.14-.47.04.04.08.12.06.12l.1.02c-.2-.6-.64-.9-.93-1.43.07.17.2.37.07.26l-.28-.48.1.07-.4-.73-.01.14c-.18-.37-.14-.56-.47-.9-.16-.15.1.38-.13.03l-.93-1.84c-.04.1-.13-.06-.25-.22l.05-.06c-.47-.58 0-.32-.45-.9l.08.03-.23-.08c-.47-.5-.05-.4-.6-.9.16.24-.07.2-.23-.12l.1.04c-.12-.16-.18-.2-.23-.32.1.08.12 0-.04-.24l.18.12-.4-.4c-.15-.4-.6-.93-.6-1.13 0 0-.43-.8-.63-.93.15.12-.08-.32.06-.24-.2-.16-.6-.73-.68-1l.04.04c-.46-.93-1.02-1.45-1.4-2.3-.05.08-.27-.36-.3-.2-.6-.77-.72-1.62-1.2-1.73-.24-.36-.2-.48-.3-.7l.07.08-.88-1.4c-.2-.24-.35-.2-.6-.7.15.12.02-.07-.1-.24.08.1.12.13.01-.12-.04-.02-.08-.07-.1-.1 0 0 0-.02.01-.01-.2-.28-.18-.22-.1-.08-.01 0-.02.02-.01.07-.1-.34-.5-.84-.44-.93l-1.5-2.13c0-.1.14.03.3.23l-.33-.5c.07-.04.22.27.33.42-.26-.68-.88-1.2-1.2-1.98l-.14-.12-.02-.05c-.03.02-.16-.12-.24-.22 0-.14.14-.08-.08-.43-.1-.32-.5-.78-.77-1.13.1.2.04.16-.03.1-.1-.18-.1-.32-.22-.44l.07-.07c-.03.12-.36-.42-.44-.46 0-.14.22.25.3.26l-.66-1.07c-.3-.34-.03.12-.22-.02-.22-.33-.48-.62-.66-1.04v.17c-.44-.6-.66-.98-.85-1.45-3.44-4.36-1.4-.5-1.4-.5.98 1.92 1.77 2.75 3.17 4.92z"/></g><path xmlns="http://www.w3.org/2000/svg" d="M331.7 98.3l.17-.15.01-.06c-.02.02-.04.04-.05.08h0l-.13.13zm3.64 15.67l.05-.1-.05.1zm-15.24-8.65c0-.01 0-.02.01-.02l.03-.12-.04.14z"/><path xmlns="http://www.w3.org/2000/svg" d="M320.7 105.84c.6-2.4 2.7-4.1 4.3-5.4s7.9-3.2 7.9-3.2.6 1.6-.3 2.9c-1.8 2.7-5.3 3.9-5.3 3.9l-3.15 5.72s1.64.46 3.47 2.1 2.3 3.4 2.3 3.4" fill="#fff"/><path xmlns="http://www.w3.org/2000/svg" d="M323.7 100.95l.1-.04c-.01-.01-.03 0-.1.04zm1.1 8.55h0zm2.86-9.62h-.01l-.02.02.03-.02zm-3.54 10.2c.05.02.1.05.15.07l.08.02-.23-.1v.01z"/><path xmlns="http://www.w3.org/2000/svg" d="M341.2 97.64c-.8-.6-2.9-1.5-3.7-.2-.45.82-.03 2.26.95 3.36l-.15-.06c-1-.4-3.6-.8-4.2.6-.4.82.36 1.9 1.62 2.63-1.23-.07-3.18.27-3.42 1.47-.14.85.54 1.9 1.66 2.6l-.12-.03c-.8-.2-2.9-.3-3.1 1-.2 1 1.4 2.2 3.2 2.4 1.8.3 2.8-.1 3.1-1.6.1-.5-.2-.87-.64-1.12 1.72.01 3.16-.5 3.5-1.95.18-.77-.32-1.32-1-1.72 1.55.3 2.66.1 3.3-1.18.3-.58-.02-1.1-.57-1.54.9-.04 1.63-.52 2.17-1.36.9-1.4-1.8-2.7-2.6-3.3h0z" fill="#fff"/><path xmlns="http://www.w3.org/2000/svg" d="M335.73 103.97l-.01-.01.01.01zm-2.17 3.98c.03-.04.08-.08.1-.12-.22-.16-.4-.32-.58-.5l-.43.56c.33 0 .64.02.9.06h0zm4.74-7.2c.04.02.1.04.15.06-.04-.04-.07-.1-.1-.14l-.06.07v.01h.01zm-7 9.52c-.08-.07-.14-.14-.2-.22-.4.62-.42.8.2.22zm10.77-7.5l.08-.15c-.02.05-.05.1-.08.15zm84.05 138.65h0c-.01-.01-.02-.02-.03-.02l.03.02zM240.9 102.6c-.23-.15-.48-.26-.72-.4 0 .04.2.13.72.4zm8.98 7.14l.01-.04c-.02 0-.02.01-.01.04zm-4.58-1.84l-.37-.67c-.01.03.07.2.37.67zm-10.76 104.52l.16-.1-.16.1zm-17.27-111.17c.02-.01.03-.02.04-.02l.18-.13-.22.15zm98.56 147.45l-.12.56c.02-.01.05-.15.12-.56zm-6.58 21.37v-.03c0-.05.01-.1.01-.15l-.01.18z"/><path xmlns="http://www.w3.org/2000/svg" d="M226.6 99.44c5.6-.2 10.6-.2 17.4 5.6 6.2 6.1 5.9 20.2 3.7 46.6-1.4 16.4-2.2 39.8-5.9 54.1-.27 1.1-.8 2.15-1.5 3.1h26.1c-.87-20.4-.22-59.25-6.48-82.3-2.8-10.5-8.43-16.95-15.7-22.82-4.7-3.17-9.97-4.82-15.9-4.58-.87.03-1.73.15-2.57.35l.87-.05h-.02zM331 110.7c-.53.62-1.52.55-2.12.35l-4.47-1.38c-.76-.25.14-2.42.67-3.02l3.17-3.5 3.68-2.56.98-2.47.06-.6-.07-.25s-6.3 1.9-7.9 3.2-3.7 3-4.3 5.4c-.5 1.9-2.3 7.2-3 8.4-1.4 2.4-17.2 17.6-17.2 17.6l10.2 11.1 15.9-20.47 1.3-.93s4.2-3.1 5.6-4.3c1.4-1.1 9.97-15.75 9.97-15.75l-3.76-1.64-8.7 10.84v-.02zm-169.3 80.64c-5.5 19.1-7.3 35.3-7.3 35.3s-4.5 8.9-5.1 20.3c0 .8-.2 2.1.6 2.7.7.5 1.3-.2 1.3-.2s-.4 3.1 0 3.8c.8 1.6 1.8.2 1.8.2s.3 2.2 1.6 2.6c1.2.3 1.7-1.2 1.7-1.2s.4 1.3 1.5 1.2c.8-.2 1.95-2.84 2.35-5.44l2.25-7.76c.2-1 1 1.6 1.3 3.2.5 1.7 2 3.1 2.1 0s.6-5.7.6-6.6c-.1-.8.1-4-.7-6.2-.5-1.4-1.6-3-.7-6.3 1.8-5.4 11.4-23.1 16-31.8 2.3-4.3 8.2-15.6 10.9-18.6 6.3-10.5-22.9-16.2-30.2 14.8h0z" fill="#fff"/><path xmlns="http://www.w3.org/2000/svg" d="M346.66 90.5c-.23-.6-.74-1.03-1.33-1.15l-3.12-.8c-1.4-.46-2.43.47-3.52 1.65l-5.34 6.12c-.05.01-.1.03-.16.05 0-.05-.01-.12-.02-.17-.05-.01-.08-.02 0-.08-.33.18-1.03.46-1.34.47l.06-.03-.33.08-.2.07-.37.16c-.24.1-.47.2-.76.26.05.07-.25.13-.14.2-.01 0-.02 0-.02.01l-.53.18c-.2.04-.4.1-.5.18L326 98.97l-.97.52-.5.35-.4.33-1.6 1.43c-1.03 1.02-1.97 2.26-2.4 3.7-.2 1.28-1 3.3-1.38 4.72l-.26.5c-.14.5-.32 1.05-.53 1.5l-.01-.04c-.2.72-.58 1.5-.7 1.78l-.01-.03c-.1.24-.3.44-.44.67l.06-.13c-.72 1-1.68 2.03-2.5 2.88l.13-.01-4.1 4.16.01-.04c-1.35 1.6-2.5 2.52-3.76 3.74-1.1 1.33-2.55 3.17-2.4 3.33.2.2 1.73-1.02 2.45-1.6.33-.3 1.55-1.48 1.8-1.86-.26.36.6-.47.43-.17.35-.46 1.5-1.7 2.03-2.1l-.08.1 4.53-4.67c-.13.02.7-.82.43-.68l2.08-2.35c.3-.37.53-.77.64-1.1.12-.32.2-.6.2-.83.37-1 .53-1.14.73-1.65l-.07.24 1.28-3.8c.2-.7.08-.87.47-2.12-.03.27.01.13.08-.1.17-.22.35-.56.35-.56.55-.8.76-1.38 1.42-2.22.07-.06.13-.1.16-.1l1.08-1.04.37-.26c.35-.23.74-.57 1.2-.88l1.74-.9c.02-.02.04-.03.06-.04l2.2-.85 1.63-.6.15-.03c.1-.04.24-.14.33-.15v.08l.42-.23c0 .08-.02.14.08.2-.03-.02-.04.02-.07.02.04.27.02.6.18.62-.04.22-.1.17-.16.18.07.01.06.2 0 .37v-.08a1.89 1.89 0 0 1-.19.44l.17-.01c-.18.2-.17-.04-.3.2l.1.06c-.25.32-.55.4-.86.62-1.1 1.1-2.48 2.32-3.97 2.7l-.1-.06c-.03-.07-.28.12-.45.23-.05.16-.1.3-.15.3-.04.1-.07.2-.07.26-.04.03-.12.12-.1.02-.1.15-.07.16-.1.3l-.16.12c-.38.56-.52 1.13-.88 1.73-.28.33-.57.86-.85 1.42l-.7 1.46-.06-.06c.01.03.04.06.05.1l-.18.4c-.05.15-.16.32-.2.45.47.13 1 .32 1.33.5a6.28 6.28 0 0 1 .75.52c.5.37.94.77 1.44 1.06.02.04.13.08.14.07l.8.8.5.6c.27.36.57.82.8 1.2s.4.6.5.5.22-.63-.16-1.78l.04.01c-.3-.63-.6-1-1-1.26.08-.18-.38-.43-.46-.58h.02c-.28-.14-.45-.4-.67-.6l.3.32 1.04.32c.3.1.66.17 1.03.17.54 0 1.1-.16 1.52-.57.73.5 1.57.8 2.45.92.34.06.7.1 1.1.1 1.12 0 2.25-.4 2.58-2.1a1.39 1.39 0 0 0-.19-1.05c.42-.01.8-.05 1.18-.14l-1.8 3.1.04-.1c-.43.9-.66 1.08-1.2 2.02l-.1.1c-.5.92-1.7 2.66-2.26 3.1l-.1-.02-1.67 1.3.64-.47c-.1.3-1.34.9-2.5 1.9-1.02.76-1.84 1.8-2.95 2.58l-.35.42c-.37.62.28-.58-.33.3-.1-.03.26-.43.03-.26-.6.86-1.13 1.3-1.88 2.36h-.1c-.93 1.42-2.03 2.45-2.62 3.42-1.02 1.4-.9.8-1.9 2.3l-.5.5c-.5.6-.24.5-.8 1.16-.02-.08-.7.83-.45.4l-4.02 5.13c-.24.52-1.1 1.5-1.27 1.87-.02.01-.16.17-.32.36-.1-.08-.18-.17-.25-.2.44.34-.5-.82-.12-.6-.55-.45-1.98-1.95-2.4-2.68l.1.1-5.2-6.07c-.03.2-.9-.97-.82-.57-.1-.1-.18-.2-.27-.3l-.63-.7-.17-.2-.16-.2c-.08-.1-.17-.2-.27-.3-.8-.74-2.02-.74-2.75-.17-.9.62-1.48 1.06-1.73 1.6-1.03.78-1.32.78-1.88 1.14l.23-.2-4.03 2.78c-.72.53-.7.84-2.1 1.62.38-.36-.16 0-.67.3.32-.2.4-.3-.3.04-.08.08-.2.2-.34.28-.01 0-.04.01-.03-.01-.84.52-.68.46-.27.25-.01.03.03.02.17-.02-.95.4-2.53 1.36-2.7 1.2-1.27.55-2.47.76-3.63.8a10.83 10.83 0 0 1-3.44-.47c-.23-.17.34-.07 1 .08l-1.62-.5c.06-.12.94.28 1.45.38-1.84-.72-3.97-1.38-5.77-3.04l-.45-.24-.1-.1c-.03.05-.5-.24-.78-.48-.17-.32.2-.17-.68-1-.6-.74-1.93-1.9-2.8-2.85.43.53.24.4.01.2-.4-.46-.55-.8-.88-1.14l.08-.15c.04.28-1.14-1.14-1.33-1.27-.13-.34.68.68.85.74L265 125.5c-.9-.97.03.28-.47-.13-.03-.03-.06-.06-.08-.1-1.26-3.1-2.8-6.02-4.13-8.13-2-3.1-4.34-6.3-7.24-9.1-2.85-2.82-6.35-5.2-10.07-6.5l-3.8-1.32a19.21 19.21 0 0 0-5.47-1.8c-1.4-.26-2.83-.35-4.24-.36h-.2a21.83 21.83 0 0 0-4.84-.47l-1.23.03-1.18.1c-.78.06-1.53.23-2.3.38-.27-.13-1.2.03-2.17.22l-2.53.6.1-.05c-1.3.48-2.7.8-4.02 1.33-.66.28-1.34.55-1.97.86-.6.35-1.2.72-1.73 1.1.08-.07.08-.17.6-.5l-1.3.83-1.2.9c-.75.54-1.34.92-1.44.9-3.66 2.84-8.23 7.35-9.98 9.7l.1-.18c-1.02 1.33-1.43 1.62-2.6 3.07-.08.06-.18.15-.17.13-.54.73-1.38 1.76-2.2 2.74-.83.98-1.62 1.93-2.04 2.53l-.15.01-2.2 2.87c.27-.36.55-.7.84-1.06-.06.55-1.8 2.06-3.2 4.28-.73 1-1.32 2.1-1.92 3.2s-1.18 2.24-1.96 3.24c-.56 1.08.4-1-.52.55-.17-.04.4-.76.02-.44-.9 1.53-1.73 2.35-2.8 4.27h-.15c-1.32 2.55-2.92 4.56-3.68 6.33-1.28 2.7-1.28 1.62-2.32 4.56l-.6 1.05c-.5 1.22-.17.95-.77 2.3-.07-.12-.7 1.7-.5.87-1.3 3.07-1.98 6.43-3.47 10.53-.07.96-.78 3.04-.82 3.76-.12.1-1.16 4.23-.7 1.8.04-.2.14-.57.17-.53l-.04-.32c-.88 2.34-1.03 4.4-1.67 6.76.22-.7.44-1.64.37-1l-.56 2.2.01-.5-.85 3.3.23-.43c-.22.8-.42 1.33-.6 1.9-.1.3-.17.6-.23.92.01-.02-.13.44-.1.8.01.38.12.82.38 1.2.55.62.04.03-.1-.5-.07-.25-.07-.46-.05-.4.04.04.01.42.5 1.03a2.13 2.13 0 0 0 .34.33l.02.01.08.05 6.9 4.22c-.16-.26.5.13 1.2.5l.02.15c2.7 1.34.82.78 3.47 2.14l.54.1c2.46 1.12 1.13.94 3.9 2.13-1.04-.57-.35-.5.9.25l-.38-.08c.7.38.97.47 1.42.75-.45-.18-.3.03.73.6l-.76-.26 1.6.72c-.5.9-.97 1.73-1.3 2.46-1.1 2.2-.97 1.35-2.04 3.67l-.55.83c-.53.96-.26.75-.87 1.8-.02-.1-.76 1.33-.48.68-1.37 2.38-2.47 5-4.27 8.13-.25.76-1.14 2.34-1.3 2.9-.1.06-1.63 3.27-.83 1.38.07-.16.2-.44.22-.4l.04-.25c-1.04 1.8-1.6 3.4-2.46 5.26.27-.55.6-1.28.43-.77l-.8 1.73.1-.4c-.4.87-.8 1.7-1.13 2.65l.2-.36c-.14.32-.25.6-.36.87-.08.27-.17.52-.23.78-.16.62-.2 1.27-.16 1.9.06.76.1-1.4.13.16-.01 1 .33 2.27.8 3.38.43 1.06.58 2.24.66 3.4.07-.22.12.4.16 1.03l-.07.08c.1 1.23.04 1.47.01 1.72l-.16 1.56-.03-.22.08.67c-.1 2.25-.32 1.2-.32 3.72.06-1 .18-.46.1.76l-.06-.3c-.02.68.01.92-.05 1.27 0-.15-.02-.2-.05-.1-.02.04-.04.1-.06.22s-.03.1-.05.2c0-.04 0-.08-.01-.1l-.01-.04-.01-.1c-.01.14 0 .13 0 .18 0 .04 0 .08-.02.12-.03.1-.14.1-.22.06-.04-.05-.07-.1-.1-.16-.08-.13-.17-.3-.24-.46-.17-.36-.22-.65-.32-1.1l-.46-1.84s-.06-.2-.18-.5c-.07-.16-.13-.33-.3-.6-.07-.08-.08-.15-.3-.3-.1-.06-.36-.17-.64-.05-.23.1-.33.26-.37.32-.17.36-.1.3-.16.45-.24.83-.5 1.75-.53 2.1.1-.62-.4 1.02-.34.53-.15.8-.74 3.1-1.1 3.97l.04-.18-.35 1.15-.23 1.14c-.15.68-.34 1.33-.56 1.95-.22.6-.48 1.2-.8 1.67-.2.26-.2.25-.28.25-.06-.01-.12-.04-.18-.07-.03-.02-.08-.05-.12-.1a1.45 1.45 0 0 1-.28-.45c-.1-.01-.16-.02-.23-.03l1.88-10.18a.5.5 0 0 0-.4-.58.5.5 0 0 0-.58.4l-1.93 10.43c-.04.01-.08.01-.12.02-.14.3-.2.37-.05.23-.06.08-.1.17-.16.24-.08.08-.06.07-.1.1a.39.39 0 0 1-.16.1c-.1.05-.22.06-.33.05-.22-.03-.46-.2-.64-.46-.33-.46-.5-1.07-.58-1.58l1.6-10.1c.04-.27-.14-.53-.42-.57-.27-.04-.53.14-.57.42l-1.53 9.64-.15.2c-.1.12-.28.27-.32.28-.06.03-.13.03-.2.01-.08.03-.35-.33-.46-.42-.1-.22-.1-.55-.1-.76a5.83 5.83 0 0 1 .03-.59l.1-.96-.01.34c.02-.44.06-.82.08-1.12l.02-.02h-.02c.01-.14.03-.27.04-.36l.18-1.65-1.1 1.24a.8.8 0 0 1-.27.18.28.28 0 0 1-.2.01c-.14-.04-.3-.2-.37-.38-.2-.4-.18-.95-.15-1.72.03-1.02-.14-1.18.08-3 0 .6.07-.15.15-.83-.04.44-.03.57.1-.3 0-.17.01-.33.03-.5.01-.01.02-.04.02-.02.15-1.13.1-.94.01-.42-.01-.03-.02.01-.07.17.24-1.16.56-3.26.7-3.37.7-3.35 1.3-5.74 2.26-8.44.17-.28-.03.36-.28 1.15l.68-1.9c.06.04-.37 1.1-.57 1.7.47-1.1.88-2.28 1.37-3.48l.38-.9c.02-.06.1-.2.13-.3l.03-.3.06-.5a40.97 40.97 0 0 1 .3-2.06v-.6l.03-.17c-.03 0 .01-.63.06-1.05.13-.4.16.05.36-1.34.24-1.1.47-3.13.7-4.57-.15.77-.14.52-.1.18.12-.7.26-1.08.33-1.62l.1-.05c-.14.26.24-1.83.26-2.1.15-.38-.15 1.08-.13 1.27l.8-4.16c.23-1.5-.14.25-.08-.47.24-1.3.47-2.6.84-4.07l-.18.45c.5-2.46.83-3.9 1.32-5.53l1.75-8.3c.22-1.23.1-1.17-.15-.54s-.64 1.83-.97 2.87-.57 1.93-.57 1.93c-2.02 7.1-2.63 10.86-4.17 19.48l-1.5 8.64-.27 1.87-.06.43-.13.27-.44.97c-.6 1.33-1.18 2.87-1.8 4.8a55.28 55.28 0 0 0-2.45 11.44l-.2 3.4c-.01.62-.1 1.37.3 2.17.2.4.53.75 1 .92a1.26 1.26 0 0 0 .5.07l-.08 1.73-.02-.05c.02.3.04.6.12.94.03.1.03.17.1.3.05.1.1.22.13.27.08.15.18.3.28.42.23.3.65.57 1 .6.25.03.46-.02.65-.1.2.58.5 1.16 1.06 1.66.36.32.95.57 1.5.47.3-.03.55-.16.77-.3a1.71 1.71 0 0 0 .26-.21l.04-.04c.03-.04.06-.1.08-.12l.03.08v-.16c.02.05.05.1.08.15.03.04 0 .02.1.1a1.99 1.99 0 0 0 .33.24c.24.14.52.2.84.22.3.03.58-.13.8-.3.23-.2.32-.32.44-.48.42-.6.65-1.15.87-1.7.2-.56.4-1.14.56-1.72.1-.3.17-.63.24-.97.04-.18.08-.36.1-.54.02-.1.04-.2.05-.2l.1-.27v.05c.46-2.02.96-3.58 1.46-5.16l.34-1.08.33 1.03c-.15-.5.01.23-.02.2l.17.75a5.63 5.63 0 0 0 .31.77 2.43 2.43 0 0 0 .2.35l.1.17.17.22c.23.3.5.5.77.62a1 1 0 0 0 .76 0c.2-.1.35-.26.44-.4.18-.3.18-.55.16-.57.1-.27.1-.43.14-.6s.04-.27.05-.37c.02-.2.03-.3.05-.37.03-.13.06-.1.1-.2-.08.01-.06-1.23.05-2.33l-.02.5c.08-1.06.2-2.1.32-3.18l-.22.6c.12-.84.18-.95.22-1.04.02-.05.04-.1.07-.23.01-.16.07-.32.05-.86-.04.01-.07.02-.1.03-.08-2.3.23-3.75-.37-6.12-.43-1.22-.94-2.17-1.04-3.28a7.67 7.67 0 0 1 .43-3.3c.8-2.2 1.86-4.43 2.88-6.6 2-4.2 4.13-8.35 6.4-12.42l.26-.3c.2-.1.96-2.24 1.23-2.48l.43-.93c.16-.24.46-.77.25-.3.45-.83.44-.86.73-1.5l.55-.86 2.24-4.23c.04.03.08.05.12.08l.16.1a.95.95 0 0 1 .27.17c.2.1.37.2.58.25.8.23 1.8-.22 2.1-.94.1-.15.24-.34.3-.45l.18-.3c.12-.2.23-.38.32-.55.2-.33.37-.58.5-.72 0 0 1.9-3.2 2.14-4.03-.06.17-.05.2 0 .15l-.92 4-2.28 9.75-1.16 4.7-1.33 5.16-.4 1c-.05.1-.1.27-.18.54.37.01.95-.01 1.58-.04l.98-.05.5-.03.32-.03c.74-.07 1.44-.1 1.64-.03l1.44-.1c.4.04 1.25.08.54.13 1.33.01 1.36-.03 2.3-.1l1.42.13c5.24.1 9.7-.15 15.2-.1 3.3.14 8.08.14 12.92.1l7.14-.1c2.37.04 4.62-.54 6.35-1.2 2.42-1 4.86-2.35 6.8-4.46.1-.1.2-.24.3-.36h1c5.94.23 16.32.08 23.93-.05.04.43.1.85.22 1.22.26.87.66 1.57 1.15 2.18 1 1.18 2.25 2.16 4.34 2.63l-.06.03c.68.08 1.34.02 1.83.01.5-.02 1-.03 1.52-.03l1.55.02 1.8.03.3.01c.1-.01.25.05.2-.1l-.32-3.88a42.08 42.08 0 0 0-.45-3.23c.1.6.05-.26.1-.22-.27-2.18-.55-4.52-.84-4.52-.17-1.6-.06-1.3.03-1.53-.12.02-.33-1.36-.48-2.6l.1.57-.45-3.56-.15.73c-.15-1.9.23-.5-.03-2.3l-.2.05c-.27-2.62-.16-4.18-.32-6.73-.62-5.4-1.45-10.98-2.28-16.45a9.49 9.49 0 0 1 .86.33c.37.18.8.3 2 .24l.95.12c.53-.01.7-.1.9-.18s.4-.16.95-.23c-.03.16 1.4-.3.8-.02 2.53-.58 4.63-2.13 7.5-3.57.47-.56 1.9-1.3 2.23-1.75.12.03 2.66-1.84 1.28-.64-.12.1-.35.26-.35.22l-.1.22c.82-.43 1.48-.94 2.1-1.5l1.94-1.68c-.44.3-.98.77-.67.4l1.3-1.05-.2.3c.66-.5 1.3-1.04 1.94-1.57l-.34.13c.97-.75 1.44-.88 2.32-1.95.4-.5-.97.66-.05-.24 1.26-1.03 3.1-2.66 4.56-4.13-.24.04.15-.36.53-.8l.14.04c1.4-1.72.76-.4 2.14-2.1l.13-.4c1.1-1.65.9-.62 2.08-2.5-.55.67-.47.13.26-.64l-.08.28c.37-.46.45-.65.72-.94-.17.3.02.26.55-.43l-.26.54.87-1.4c.9-.9 2-2.6 2.46-2.9l.13-.16c.04-.06.3-.33.45-.68a2.29 2.29 0 0 0-.26-2.24l1.86-2.44c1.12-1.45 2.26-2.88 3.42-4.3l.24-.16c.18-.02.9-1.48 1.15-1.6l.4-.6c.14-.15.43-.47.23-.17.42-.53.4-.55.68-.96l.5-.52c1.68-2.06 2.94-3.93 4.68-6.12l1.12-1.36 1.05-.73c.4-.27.77-.58 1.17-.9l2.42-1.9c.8-.66 1.6-1.22 2.35-1.92.7-.82 1.13-1.54 1.56-2.2 1.35-2.2 2.86-4.5 4.38-6.85l2.22-3.52 1.04-1.76.64-1.12.42-.74c.07-.06.01-.1-.05-.1.22-.36.3-.75.2-1.14-.22-1-1.4-1.8-2.32-2.38l4.27-5.3c.36-.44.46-1.12.22-1.74l.12-.06zm-19.07 9.1c.2-.15.53-.25.8-.38.08-.03.16-.07.23-.1.02.07-.62.3-1.03.48zm-64.76 108.6l-.12-.1-4.4.03 1.65.02c-.57.3-3.33-.2-6.53.01-3-.04-6.07.64-9.17.5-1.48.14 1.3-.23-.9-.12-.07-.16 1.03-.1.46-.23-.8.03-1.52.01-2.22-.01.35-.6.65-1.2.86-1.88.25-.72.37-1.35.56-2.03.18-.67.35-1.34.5-2 1.24-5.4 2.08-10.9 2.43-16.07.06-.33.08-1.2.06-1.2.34-3.14.6-6.3.87-9.43l.48-6.6.68-11.93c.16-3.55.22-6-.07-5.44-.1.18-.22.67-.38 1.52l.13-1.54.54-6.8-.04 6.18c.06 1.75.22 1.64.43.7.2-.93.43-2.68.6-4.2l.3-2.8c.53-5.13.76-9.03.82-13.2.03-2.08.04-4.23-.04-6.64-.07-2.4-.2-5.06-.6-8.17-.13-1.37-.4-2.6-.6-3.75-.3-1.14-.52-2.2-.9-3.17-.23-.76-.56-1.46-.9-2.13.98.93 1.94 1.88 2.84 2.88l.98 1.12c.6.7 1.4 1.7 2.26 2.9 1.7 2.37 3.4 5.58 4.47 8.15l1.23 3.12c.3.72.5 1.05.55.8.02-.16.01-.56-.1-1.25l.35 1.18c.47 1.74.9 3.57 1.3 5.48-.17-.63-.34-1.22-.5-1.72-.48-1.47-.84-2.48-1.1-3.12-.53-1.3-.67-1.15-.6-.4.06.76.3 2.13.53 3.3.25 1.17.4 2.18.4 2.18l1.68 10.28c.5 3.24 1.04 6.68 1.5 11.52.6 8.53.46 10.8.95 19.67l.48 12.88c.26 1.96.14 5.44.36 7.76l-.1.9c.08.8.14 1.74.1 2.55l-.04-.05c.12 1.2.1 2.55.16 3.15l-.04-.05.06 1.46-.07-.28c.14 2.02.23 4.05.26 6.08-.97-.01-1.83-.01-2.43.02l.02-.03zm2.5-.02l.08-.1v.1h-.08zm71.1-98.33c-.2.97-.7 1.5-2.55 1.2-1.24-.14-2.2-.76-2.6-1.27-.1-.14-.22-.35-.18-.53v-.02c.03-.18.12-.3.28-.42.3-.2.8-.27 1.27-.27a4.23 4.23 0 0 1 .94.1c.14.04.33.07.56.1.67.12 1.92.34 2.23.8.04.05.08.13.05.3h0zm3-3.22c-.28 1.2-1.2 1.53-3.42 1.32-1.88-.38-3.33-1.64-3.2-2.42.05-.26.2-.45.45-.6.66-.38 1.8-.3 2.4-.12.18.06.46.12.8.2.88.2 2.52.57 2.9 1.2a.52.52 0 0 1 .07.4v.02zm.82-.86c-.01-.02-.02-.05-.04-.07-.01-.02-.03-.03-.04-.05.05 0 .1-.01.16-.01-.02.04-.05.08-.08.13zm1.52-2.15c-.57 1.14-1.52 1.3-3.95.63-1.64-.36-2.86-1.3-3.2-2.03-.18-.38-.08-.6-.05-.66l.01-.03c.2-.5.9-.68 1.64-.68.7 0 1.44.15 1.92.35.12.05.28.1.47.18l.73.28c.1.07.22.16.34.22.4.22.83.42 1.3.56.4.25.72.5.83.8a.47.47 0 0 1-.02.4l-.02-.02zm1.7-3.37c.03.15 0 .28-.1.42-.45.7-1 1.1-2.02.85-.48-.28-1.03-.53-1.6-.76-1.45-.96-2.2-2.4-1.83-3.07.14-.22.33-.34.6-.4.76-.14 1.86.36 2.37.74.15.1.36.25.6.4.68.44 1.82 1.17 1.96 1.8l.02.02z"/><path xmlns="http://www.w3.org/2000/svg" d="M303.5 129.9l-.02.03.03-.03h-.01z"/><g xmlns="http://www.w3.org/2000/svg" fill="#fff"><path d="M267.46 136.12l-.01.1c.01-.01.02-.04.01-.1zm4.47 26.4c0 .01.01.01.01.02 0-.02-.01-.02-.01-.02zm-4.75-22.14h0l-.01-.03.01.03z"/><path d="M266.12 135.1c.27 1.4.2 1.8.58 3.2l.5 2.07c.2.3.2.88.37 1.23l-.04.16c.06.12.12.27.1.4h-.02c.1.18.1.4.15.5h-.02l.06.23-.04-.03c.12.32.2.65.23.98l.08-.04c.03.67.26.88.25 1.5h-.02c.36.7.07 1.2.42 1.94-.04-.1-.04.05-.06.04.1.35.17.73.34.7.04.26-.02.22-.07.27.07-.01.15.2.18.4l-.04-.1.12.58.12-.14c.01.32-.16.1-.08.4l.12-.02c.05.43-.1.7-.1 1.13.2 1.72.75 3.54.77 5.17l-.08.08c-.12.05.25.42.14.5l.08.18c-.02.06-.02.17-.07.08.02.17.04.17.1.3l-.05.2c.03.7.26 1.25.33 1.97-.04.88.33 2.5.54 3.4.37 1.3.07 2.9.47 4.2-.01.05.04.15.06.15l.15 1.23s.77 5.98 1.2 1.3l.03.03c-.02-.68-.07-1.1-.27-1.56.16-.1-.06-.56-.02-.72l.02.01c-.2-.4-.01-.86-.18-1.24.02.01.06.02.08.1-.06-.3-.15-.68-.06-.7-.12-.7-.2-1.66-.43-2.08l.03.03c-.14-.24-.06-.32-.15-.6.01-.02.01-.04.02-.04-.14-.26-.13-.8-.2-1h.06l-.1-.54.01.2c-.2-.05.06-.43-.1-.8-.03-.37-.48-.7-.44-1.1-.1-.17.16.14.06-.12.1-.02.08.12.14.04-.08-.26.04-.46-.07-.78l.07-.02c-.2-.42-.01-.83-.18-1.1-.12-.44.18-.33-.03-.78l.08-.2c-.01-.2-.14-.13-.12-.35.06 0 .01-.3.1-.17.03-.5-.28-1-.2-1.68-.14-.13-.1-.47-.22-.56.05-.03-.08-.67.08-.3.01.03.02.1 0 .1l.08.03c.1-.4-.17-.67-.2-1.05-.01.1.02.26-.05.17l-.04-.35.07.06-.04-.52-.07.08c0-.26.12-.37-.03-.64-.08-.12-.07.25-.13-.01l-.04-1.3c-.08.05-.1-.06-.13-.18l.07-.03c-.18-.44.14-.2-.02-.63l.06.03-.17-.1c-.2-.38.12-.25-.16-.67.04.18-.15.1-.15-.1l.08.04c-.04-.12-.07-.15-.07-.24.05.07.1.02.07-.16l.1.1-.2-.32c.03-.28-.14-.67-.06-.8 0 0-.05-.57-.2-.68.1.1.06-.2.15-.14-.1-.13-.25-.55-.2-.74l.02.03c-.03-.65-.32-1.07-.33-1.65-.08.04-.1-.27-.2-.17-.22-.57.01-1.12-.37-1.26-.07-.26.01-.33 0-.47l.03.06-.23-1c-.07-.18-.23-.18-.27-.52.08.1.04-.04.02-.16.03.08.05.1.06-.07-.02-.02-.04-.05-.06-.08v-.01c-.07-.2-.08-.16-.07-.06-.01 0-.02.01-.03.04.03-.23-.13-.6-.03-.65-.16-.62-.37-1.04-.52-1.55.04-.07.12.04.17.2l-.1-.36c.08-.01.1.2.13.3.03-.47-.33-.87-.33-1.4l-.1-.1v-.03c-.03.01-.1-.1-.13-.17.05-.1.16-.03.1-.28.02-.22-.16-.56-.26-.82.02.14-.03.1-.07.05-.03-.13.02-.2-.03-.3l.1-.03c-.08.07-.17-.3-.22-.35.05-.1.1.18.16.2l-.2-.76c-.13-.25-.08.07-.2-.04-.07-.24-.2-.45-.2-.74l-.06.1c-.17-.43-.22-.7-.22-1.03-1.48-3.17-1.08-.48-1.08-.48.14 1.34.54 1.96.97 3.5l.05-.02zm-35.02 46.65l-1.45 8.57-.52 2.64c-.26.76-.57 1.5-1.08 2.1-.3.74-1.46 1.48-2.18 2.08-.12.03-.25.05-.38.07-.26.2-.57.43-.9.5v-.04c-.4.27-.95.43-1.17.54l.01-.04-.57.2.08-.08c-.8.34-1.7.54-2.5.62l.1.13c-1.72.08-2.34.43-3.92.25l.02-.04c-2 .37-3.13-.32-5.16-.28.25 0-.1-.1-.07-.13-.92-.12-1.87-.37-1.96-.1-.66-.18-.5-.25-.55-.38-.03.1-.6-.02-1.1-.22.08.02.15.04.24.05-.45-.2-.93-.37-1.34-.63l.13.36c-.65-.48-.03-.35-.7-.7l-.1.17c-.86-.7-1.1-1.36-1.57-2.22-1.12-1.7-1.5-3.92-1.36-6.25.1-2.35.33-4.7.77-6.8l.17-.17c.22-.05-.16-1.23.06-1.37l-.03-.5c.06-.14.14-.43.15-.17.07-.46.04-.48.02-.82l.2-.48c.36-1.8.34-3.4.68-5.3.16-.57.3-1.26.43-2.03l.17-1.02.02-.15.01-.08c.02-.01.05 0 .07-.01-.07-.03 1.12-.03 1.87-.05l2.2-.07c3.57-.23 7.7.72 11.35.44.14.02.3 0 .42-.05l3.34.1s16.18.48 3.93-1.6l.08-.04c-1.82-.16-2.97-.2-4.24-.01-.2-.3-1.5-.07-1.93-.17l.04-.02c-1.12.2-2.3-.24-3.37-.07.04-.02.07-.1.3-.1-.78.02-1.86.06-1.9-.1-1.87 0-4.48-.14-5.68.1l.08-.04c-.7.16-.88.01-1.65.08-.04-.02-.1-.04-.1-.04-.75.16-2.17-.03-2.77.04l-.04-.1-1.48-.01.55.04c-.1.15-.38.1-.77.02-.34-.05-.68-.08-1.02-.1-.2-.01-.38-.02-.58-.02h-.22c-.01.02-.01.05-.01.08-.01.1-.02.22-.02.33a7.47 7.47 0 0 0-.11 1.16v.28.2c.02.13.03.26.05.4.06.53.1 1.07-.04 1.57.06.5-.16-.47-.17.28-.16 0-.05-.36-.2-.2-.04.73-.35 1.16-.37 2.07l-.13.02c.05 1.2-.5 2.17-.4 2.98-.07 1.22-.48.75-.4 2.04l-.23.46c-.1.53.15.4-.01 1-.1-.05-.18.74-.24.38-.34 1.33-.1 2.77-.58 4.53.17.4-.05 1.3.08 1.6-.1.04-.16 1.82-.28.78-.01-.1.01-.24.04-.23l-.1-.13c-.32 1.02-.02 1.88-.05 2.98.04-.32.03-.75.12-.46a8.51 8.51 0 0 0 .01 1.01l-.12-.2c.03.5.02 1.02.12 1.53l.1-.23c.04.37.01.64.03.9.04.27.1.55.33.94.2.34-.05-.74.22.01.25.97.92 2.43 1.87 3.4.01-.2.26.07.54.3l-.05.12c1.2.7.2.6 1.47 1.2l-.15.01.44-.04c.6.18.7.3.85.42.14.12.3.27.98.33-.5-.16-.13-.34.44-.07l-.2.06c.34.1.46.1.68.18-.22.01-.16.14.34.26l-.38.05 1 .05c.7.3 1.9.35 2.16.54.27.05.55.1.83.13.44.03.93.05 1.1-.03-.33.1.54.2.3.32.42-.1 1.62-.16 2.1-.03h-.1c1.8.15 3.06-.3 4.7-.36-.1-.13.76-.2.52-.35 1.6-.48 3.1-.4 3.47-1.18.7-.3.9-.23 1.27-.4l-.15.1.8-.46.6-.4c.37-.22.66-.48 1.1-.82.38-.4.26-.66.95-1.34-.1.32.12-.01.34-.3-.13.2-.15.28.2-.07.01-.08.07-.17.1-.26.01 0 .02-.01.03 0 .28-.56.2-.48.04-.24-.01-.02-.04-.01-.1.05.2-.24.47-.62.6-.97.15-.35.27-.63.37-.63.15-.44.22-.88.3-1.28l.1-1.1c.07-.7.1-1.37.2-2.08.12-.14.15.2.1.6l.13-1c.13.03-.01.6-.04.9.4-1.16.17-2.5.56-3.86l-.06-.3.03-.08c-.06 0-.1-.33-.08-.54.14-.18.26.05.35-.64.2-.53.15-1.57.17-2.3-.07.38-.12.25-.14.08.04-.35.18-.53.16-.8h.16c-.16.12-.05-.93-.1-1.06.14-.18.03.55.1.65l.22-2.1c-.03-.76-.16.12-.26-.25.05-.66.01-1.3.2-2.05l-.17.22c.03-1.24.12-1.98.35-2.8-.1-4.65-.45-5.16-.76-4.52s-.6 2.43-.6 2.43c-.6 3.53-.4 5.43-.8 9.72l.03.01zm-38.6-2.7l.12-.13c-.02-.01-.05.02-.12.13zm26.8-34.8c.01-.01.01-.02.02-.03-.02.01-.02.03-.02.03zM197 173.9h0c-.01.02-.02.03-.02.05v-.05h.02z"/><path d="M192.37 181.42l2.84-4.52 1.8-3c.18-.52.77-1.25 1.03-1.83l.2-.17c.1-.2.2-.43.36-.6v.02c.13-.3.36-.6.42-.74l.01.02.2-.34-.01.07a9.68 9.68 0 0 1 .88-1.4l-.1-.01c.7-.86.76-1.3 1.4-2.05h.01c.52-1.16 1.26-1.53 1.82-2.7-.07.15.08-.03.1-.01.32-.5.7-1.02.55-1.13.26-.35.25-.25.34-.26-.06-.04.13-.36.33-.64l-.07.14.55-.8-.23.07c.34-.4.22 0 .48-.42l-.1-.07c.44-.56.84-.77 1.33-1.27 1.75-2.25 3.5-4.78 5.44-6.6l.14-.03c.12.05.35-.67.5-.66l.17-.27c.08-.05.22-.16.14-.03.2-.2.2-.22.3-.4l.27-.17c.82-.78 1.37-1.57 2.23-2.4 1.1-.9 2.9-2.9 3.95-4.06 1.42-1.66 3.6-3.04 5.08-4.73.07-.05.12-.12.16-.2l1.5-1.38 2.88-2.8c1.06-1.1 1.33-1.7-1.82.43l.02-.05c-.87.7-1.4 1.17-1.87 1.8-.2-.04-.7.6-.92.75v-.03c-.4.57-1.1.88-1.5 1.42.01-.03-.01-.07.1-.18-.33.35-.78.83-.88.78-.8.8-2 1.88-2.4 2.5l.02-.06c-.22.37-.38.4-.67.75-.03.01-.06.03-.06.02-.25.4-.94.94-1.17 1.24l-.06-.03-.63.65.25-.23c.05.2-.57.4-.95.95-.45.42-.6 1.16-1.12 1.55-.15.28.1-.3-.18.08-.08-.06.1-.2-.03-.16-.28.35-.6.45-.92.9l-.07-.04c-.4.6-1 .9-1.25 1.35-.47.58-.5.2-.93.88l-.28.15c-.24.23-.07.26-.36.5-.03-.06-.35.3-.25.1-.63.56-1.02 1.36-1.88 2.07-.07.26-.48.63-.52.83-.06-.01-.7.85-.4.3.03-.05.1-.12.1-.1l-.01-.1c-.5.4-.67.93-1.08 1.4.14-.13.3-.32.22-.16l-.37.44.03-.13-.57.64.13-.04c-.3.3-.48.34-.7.78-.08.2.32-.25.07.1l-1.42 1.58c.1 0-.01.15-.12.32l-.07-.03c-.37.67-.3.12-.68.78v-.08l.01.25c-.28.64-.34.2-.63.93.17-.25.22-.02-.03.26v-.1c-.1.17-.12.25-.22.35.04-.12-.05-.1-.2.14l.05-.2-.23.53c-.33.3-.63.93-.82 1.02 0 0-.58.74-.6.98.05-.2-.27.22-.25.05-.08.24-.43.87-.67 1.06v-.05c-.67.83-.92 1.58-1.54 2.3.1.01-.22.4-.06.36-.46.88-1.17 1.4-1.08 1.87-.23.4-.36.4-.5.6l.04-.1-.9 1.45c-.14.28-.03.4-.36.86.04-.2-.07.01-.18.2.06-.12.06-.17-.12.04 0 .04-.03.1-.05.15-.01 0-.01.01-.02 0-.17.3-.12.27-.02.13 0 .01.02.01.06-.03-.26.26-.53.86-.65.84l-1.23 2.37c-.1.05-.04-.14.08-.37l-.3.54c-.07-.05.14-.33.23-.5-.5.56-.67 1.37-1.2 2.05l-.04.2-.04.04c.03.01-.03.2-.08.32-.12.07-.13-.1-.35.28-.23.26-.45.85-.64 1.25.13-.2.12-.1.1-.01-.1.2-.23.26-.28.42l-.1-.03c.12-.03-.2.53-.2.62-.12.07.1-.32.1-.4l-.63 1.12c-.16.43.12-.03.08.2-.18.36-.32.74-.6 1.1l.15-.1c-.3.7-.54 1.1-.86 1.5-1.06 2.64-.96 3.02-.65 2.72.32-.3.9-1.23.9-1.23 1.25-1.8 1.6-2.92 2.85-5.24l-.02.02zm13.03 34.1l.1.03c0-.02-.03-.03-.1-.03zm28.5-1.07l.02-.02c-.02.01-.02.02-.02.02zm-24.1 2.25h0c-.02 0-.02.01-.04.01h.04z"/><path d="M204 216.6c1.52.04 1.93.2 3.5.14l2.3-.04c.35-.13.97 0 1.38-.1l.16.07c.14-.04.3-.06.45-.02l-.01.02c.2-.05.45-.02.56-.05l-.01.02.26-.01-.04.03c.37-.06.75-.06 1.1-.04l-.03-.1c.72.1.98-.08 1.63.03l-.01.02c.82-.23 1.3.16 2.14-.06-.1.03.05.04.04.07.4-.02.8-.04.8-.2.28 0 .23.05.27.12 0-.07.25-.1.47-.1l-.1.03.64-.03-.12-.14c.34.04.1.17.4.14v-.12c.47.02.74.2 1.2.3 1.88.05 3.9-.25 5.64-.04l.08.1c.03.13.48-.2.55-.07l.2-.06c.06.02.18.04.08.07.2 0 .2-.02.33-.07l.2.07c.38.02.73-.02 1.1-.06l1.1-.17c.98.08 2.74-.5 3.7-.9 1.3-.62 3.1-.9 4.26-1.9.05-.01.14-.1.13-.12l1.13-.8s.34-.25.74-.63c.4-.37.87-.87 1.17-1.3s.44-.8.27-.8c-.18-.01-.62.3-1.66.95v-.04c-.56.44-.9.7-1.2 1.12-.16-.08-.48.33-.65.38h0c-.27.37-.8.4-1.1.72.01-.02-.01-.07.07-.12-.24.18-.6.4-.67.32-.34.2-.7.38-1.06.54-.36.18-.7.35-.88.5l.02-.04c-.2.2-.32.13-.58.3-.02-.01-.04-.01-.04-.01-.23.22-.8.26-1.02.38l-.03-.06-.55.17.2-.04c-.03.2-.45.01-.84.2-.4.04-.72.55-1.15.5-.18.1.15-.16-.13-.06-.02-.1.13-.08.04-.14-.28.08-.48-.04-.83.06l-.02-.07c-.45.2-.87-.02-1.17.12-.48.08-.33-.2-.82-.04l-.2-.1c-.2-.01-.15.13-.4.08.01-.06-.3-.05-.16-.1-.54-.1-1.1.14-1.82-.03-.16.12-.52.05-.63.14-.02-.05-.72-.01-.32-.13.03-.01.1-.01.1.01l.05-.07c-.4-.14-.74.08-1.14.05.12.02.28.02.17.07l-.37-.01.08-.06-.56-.04.08.08c-.27-.04-.37-.17-.68-.06-.14.06.26.1-.03.13l-1.38-.15c.04.1-.08.08-.2.1v-.07c-.5.1-.18-.16-.67-.08l.04-.05-.13.16c-.44.15-.24-.15-.73.05.2-.01.1.16-.15.13l.06-.07c-.13.02-.18.05-.27.03.08-.04.04-.1-.15-.1l.13-.1-.37.13c-.28-.08-.74.02-.85-.08 0 0-.6-.05-.75.06.12-.07-.2-.1-.12-.18-.16.08-.63.14-.8.06l.04-.01c-.7-.1-1.2.12-1.8.01.03.1-.3.04-.22.15-.64.1-1.17-.23-1.4.12-.3.02-.35-.08-.5-.1h.07-1.12c-.2.03-.24.2-.6.15.12-.06-.03-.05-.17-.05.1-.01.1-.03-.06-.08a.3.3 0 0 1-.1.04s-.01-.01 0-.02c-.23.02-.2.04-.08.05-.01.01 0 .02.04.04-.24-.08-.66.01-.7-.1-.68.03-1.17.14-1.74.18-.06-.06.07-.1.23-.13h-.4c0-.08.23-.05.36-.06-.48-.13-1 .13-1.56.01l-.12.06h-.03c0 .03-.12.08-.2.1-.08-.07.01-.16-.27-.16-.22-.07-.63.03-.92.07.16.01.1.05.04.08-.14 0-.22-.07-.33-.04l-.01-.1c.05.1-.36.1-.42.13-.08-.07.22-.06.25-.1h-.84c-.3.07.05.1-.1.17-.26.02-.52.08-.82.03l.1.08c-.5.07-.8.06-1.13-.03-3.7.68-.78.93-.78.93 1.4.2 2.14-.05 3.88-.1v-.06zm62.1-4.75l-.02.05c.01-.01.02-.02.02-.05zm8.48 3.9zm-8.88-1.87h0v-.01z"/><path d="M264.92 211.6c.1.6 0 .82.3 1.42.1.3.3.6.48.84.17.06.22.35.4.42l-.02.1c.07.03.13.07.13.14v.01c.1.04.13.14.2.15h-.02l.08.07-.04.01c.15.08.27.2.35.3l.05-.07c.15.3.37.2.5.46v.01c.4.03.4.42.8.42-.05 0 0 .05-.02.07.15.06.32.1.4-.05.1.04.07.08.06.15.03-.07.13-.06.22-.04l-.05.01.25.06v-.15c.1.08-.02.18.1.2l.03-.1c.16.1.23.26.4.4.77.23 1.53-.02 2.2.25l.02.1c0 .13.2-.17.2-.05l.08-.05c.02.02.06.05.02.08.07.01.07-.01.13-.05l.07.08c.28.08.53-.06.83-.02.36.18 1.04.03 1.43-.07.53-.2 1.2.26 1.76-.02.02.02.06-.03.06-.05l.52-.05s.63-.1 1-.3c.38-.24.38-.48-.6-.8v-.03c-.27-.01-.43 0-.6.16-.05-.17-.22.02-.3-.03v-.01c-.15.15-.34-.07-.5.07 0-.01 0-.06.04-.07-.1.03-.26.1-.28-.01-.27.05-.65.03-.82.2l.01-.03c-.1.1-.13.02-.24.08-.01-.01-.01-.02-.01-.03-.1.1-.32.03-.4.07v-.07l-.22.02h.08c-.03.18-.17-.1-.32.01-.15-.02-.3.38-.46.28-.08.08.07-.14-.04-.07 0-.1.05-.06.03-.14-.1.04-.17-.1-.3-.04v-.07c-.18.13-.32-.12-.45.01-.18.05-.1-.23-.3-.1l-.07-.1c-.08-.02-.07.12-.15.06.01-.06-.1-.06-.05-.12-.2-.12-.42.1-.66-.08-.07.12-.2.03-.25.12 0-.05-.26-.04-.1-.14.01-.01.04 0 .03.02l.03-.07c-.13-.15-.28.04-.42.01.04.03.1.03.05.08l-.14-.03.04-.06-.2-.06.02.08c-.1-.06-.1-.2-.22-.1-.06.05.07.12-.03.12-.1-.08-.28-.2-.43-.24-.01.1-.05.07-.1.08v-.07c-.18.05-.01-.18-.18-.15l.03-.04-.1.13c-.2.1-.02-.17-.25-.04.07.01-.03.16-.1.1l.05-.06c-.05 0-.07.02-.1 0 .04-.03.05-.1-.01-.1l.08-.07-.17.08c-.05-.1-.22-.1-.2-.2 0 0-.15-.14-.25-.07.07-.04-.01-.1.06-.17-.1.05-.25.01-.25-.1h.01c-.12-.2-.4-.13-.46-.35-.05.07-.1-.04-.15.06-.23-.1-.1-.42-.4-.27-.07-.07-.01-.15-.02-.2l.03.01c-.13-.13-.17-.17-.24-.3-.07-.04-.2.03-.24-.1.07 0 .04-.04.02-.08.02.02.05.02.05-.06-.02 0-.04 0-.05-.01-.05-.07-.06-.05-.05-.01-.01 0-.02.01-.03.03.03-.1-.12-.2-.03-.26-.13-.2-.3-.32-.42-.5.04-.04.1-.02.15.03-.03-.04-.05-.08-.07-.12.07-.03.07.06.1.1.06-.2-.24-.3-.2-.5l-.07-.02v-.01c-.03.01-.1-.02-.1-.05.06-.05.16-.04.13-.14.05-.1-.1-.2-.15-.3 0 .06-.04.05-.07.03-.02-.05.05-.1.01-.12l.1-.02c-.08.04-.12-.1-.16-.12.06-.04.07.07.13.07l-.07-.3c-.1-.1-.08.03-.18 0-.03-.1-.1-.18-.07-.3l-.08.05c-.1-.17-.1-.3-.01-.42-.4-.65-.58-.78-.75-.68-.15.13-.2.43-.2.43-.1.6.17.88.37 1.55zm-65.1-105l.14-.08c-.01 0-.05.01-.14.08zm37.78-7c.01 0 .02 0 .04.01-.03-.01-.04-.01-.04-.01zm-32.14 4.42l-.01.01-.03.02z"/><path d="M199.1 108.66l1.86-1.45 1.93-1.44 2.58-1.75c.35-.35 1.14-.66 1.57-1.03l.22-.05c.15-.14.34-.25.54-.3v.02c.24-.17.54-.3.66-.38v.02l.3-.16-.04.05c.43-.27.9-.5 1.32-.68l-.07-.06c.95-.28 1.22-.57 2.08-.8v.02c.96-.66 1.72-.42 2.76-.97-.13.07.07.03.07.05.5-.18 1.04-.35 1-.52.38-.1.32-.02.4.03-.02-.07.3-.17.6-.23l-.13.06.85-.2-.2-.1c.46-.05.15.15.58.02l-.03-.1c.63-.1 1.03-.02 1.65-.03l3.88-.45c1.3-.04 2.6-.12 3.78.04l.1.1c.04.13.66-.14.75-.01l.28-.04c.08.03.24.07.1.08.25.03.26 0 .45-.02l.26.1c1 .2 1.86.17 2.9.4 1.2.43 3.54.9 4.83 1.42 1.9.56 3.63 2.1 5.32 3.1a.45.45 0 0 0 .2.11l1.4 1.16.93.85c.53.48 1.13 1.13 1.6 1.62.47.5.8.82.85.65.06-.16-.15-.9-1.14-2.36l.05.02c-.66-.8-1.14-1.26-1.77-1.62.04-.2-.63-.57-.8-.75h.03c-.57-.3-.96-.88-1.54-1.12.03 0 .06-.03.18.05-.38-.24-.9-.54-.88-.64l-1.52-.87c-.53-.25-1.02-.47-1.36-.55h.05c-.4-.08-.46-.2-.88-.3l-.04-.04c-.43-.06-1.13-.47-1.47-.53V99l-.8-.25.3.1c-.16.14-.56-.3-1.17-.38-.54-.18-1.2.1-1.75-.14-.3.02.27-.08-.15-.1.01-.1.2-.01.1-.1-.4-.05-.63-.27-1.15-.27l-.01-.08c-.67.03-1.22-.3-1.67-.24-.68-.04-.43-.27-1.15-.2l-.27-.12c-.3-.04-.23.1-.56.03.02-.06-.42-.08-.22-.13-.76-.2-1.55.1-2.56-.07-.22.13-.72.06-.88.15-.03-.05-1 0-.45-.12.05-.01.13-.01.13.01l.07-.07c-.58-.13-1.04.07-1.6.13.17.01.4-.02.25.04l-.52.05.1-.07-.8.05.12.06c-.4 0-.54-.1-.96.04-.2.08.37.06-.03.13-.5.01-1.3-.02-1.94.12.07.07-.1.1-.27.16l-.03-.07c-.66.24-.28-.1-.95.1l.05-.06-.15.2c-.58.27-.36-.08-1 .25.27-.07.16.13-.17.17l.07-.1c-.18.05-.23.1-.36.1.1-.06.03-.12-.23-.03l.15-.14-.46.28c-.4.04-1 .3-1.17.26 0 0-.84.2-1 .36.14-.12-.32 0-.22-.12-.2.12-.8.43-1.06.45l.04-.03c-.94.28-1.5.7-2.37.95.07.06-.36.22-.22.27-.76.5-1.58.52-1.72.97-.36.2-.47.14-.67.22l.08-.06-1.35.8c-.23.17-.2.33-.65.55.1-.14-.06-.02-.23.07.1-.07.12-.1-.12-.02-.02.03-.06.07-.1.1 0 0-.02 0-.01-.01-.26.2-.2.18-.07.1 0 .01.02.01.06.01-.32.1-.76.52-.85.45a22.11 22.11 0 0 0-1.9 1.54c-.1.01.01-.14.2-.3l-.44.36c-.04-.07.23-.23.36-.35-.6.3-1.03.94-1.72 1.34l-.08.16-.04.02c.02.02-.08.17-.16.26-.13.02-.1-.13-.4.13-.28.15-.65.6-.93.9.17-.14.15-.06.1.02-.14.13-.27.16-.36.3l-.08-.06c.12.01-.3.42-.33.5-.13.03.18-.25.18-.32l-.85.82c-.25.34.12.01.03.2-.24.28-.45.58-.78.84l.15-.04c-.44.53-.7.84-1.1 1.13-1.43 2.16-1.28 2.56-.97 2.33.3-.2 1-.92 1-.92 1.42-1.4 1.94-2.3 3.63-3.96z"/></g></g></svg>